<?xml version="1.0" encoding="utf-8" standalone="no"?>
<!DOCTYPE svg PUBLIC "-//W3C//DTD SVG 1.1//EN"
  "http://www.w3.org/Graphics/SVG/1.1/DTD/svg11.dtd">
<svg xmlns:xlink="http://www.w3.org/1999/xlink" width="648pt" height="648pt" viewBox="0 0 648 648" xmlns="http://www.w3.org/2000/svg" version="1.1">
 <metadata>
  <rdf:RDF xmlns:dc="http://purl.org/dc/elements/1.1/" xmlns:cc="http://creativecommons.org/ns#" xmlns:rdf="http://www.w3.org/1999/02/22-rdf-syntax-ns#">
   <cc:Work>
    <dc:type rdf:resource="http://purl.org/dc/dcmitype/StillImage"/>
    <dc:date>2025-03-11T11:54:10.916240</dc:date>
    <dc:format>image/svg+xml</dc:format>
    <dc:creator>
     <cc:Agent>
      <dc:title>Matplotlib v3.10.1, https://matplotlib.org/</dc:title>
     </cc:Agent>
    </dc:creator>
   </cc:Work>
  </rdf:RDF>
 </metadata>
 <defs>
  <style type="text/css">*{stroke-linejoin: round; stroke-linecap: butt}</style>
 </defs>
 <g id="figure_1">
  <g id="patch_1">
   <path d="M 0 648 
L 648 648 
L 648 0 
L 0 0 
z
" style="fill: #ffffff"/>
  </g>
  <g id="axes_1">
   <g id="patch_2">
    <path d="M 64.8 583.2 
L 421.2 583.2 
L 421.2 32.4 
L 64.8 32.4 
z
" style="fill: #ffffff"/>
   </g>
   <g id="matplotlib.axis_1">
    <g id="xtick_1">
     <g id="line2d_1">
      <path d="M -1 98.2 
L 64.8 32.4 
" clip-path="url(#p472fd73b76)" style="fill: none; stroke: #b0b0b0; stroke-width: 0.8; stroke-linecap: square"/>
     </g>
    </g>
    <g id="xtick_2">
     <g id="line2d_2">
      <path d="M -1 163 
L 129.6 32.4 
" clip-path="url(#p472fd73b76)" style="fill: none; stroke: #b0b0b0; stroke-width: 0.8; stroke-linecap: square"/>
     </g>
    </g>
    <g id="xtick_3">
     <g id="line2d_3">
      <path d="M -1 227.8 
L 194.4 32.4 
" clip-path="url(#p472fd73b76)" style="fill: none; stroke: #b0b0b0; stroke-width: 0.8; stroke-linecap: square"/>
     </g>
    </g>
    <g id="xtick_4">
     <g id="line2d_4">
      <path d="M -1 292.6 
L 259.2 32.4 
" clip-path="url(#p472fd73b76)" style="fill: none; stroke: #b0b0b0; stroke-width: 0.8; stroke-linecap: square"/>
     </g>
    </g>
    <g id="xtick_5">
     <g id="line2d_5">
      <path d="M -1 357.4 
L 324 32.4 
" clip-path="url(#p472fd73b76)" style="fill: none; stroke: #b0b0b0; stroke-width: 0.8; stroke-linecap: square"/>
     </g>
    </g>
    <g id="xtick_6">
     <g id="line2d_6">
      <path d="M -1 422.2 
L 388.8 32.4 
" clip-path="url(#p472fd73b76)" style="fill: none; stroke: #b0b0b0; stroke-width: 0.8; stroke-linecap: square"/>
     </g>
    </g>
    <g id="xtick_7">
     <g id="line2d_7">
      <path d="M -1 487 
L 453.6 32.4 
" clip-path="url(#p472fd73b76)" style="fill: none; stroke: #b0b0b0; stroke-width: 0.8; stroke-linecap: square"/>
     </g>
    </g>
    <g id="xtick_8">
     <g id="line2d_8">
      <path d="M -1 551.8 
L 518.4 32.4 
" clip-path="url(#p472fd73b76)" style="fill: none; stroke: #b0b0b0; stroke-width: 0.8; stroke-linecap: square"/>
     </g>
    </g>
    <g id="xtick_9">
     <g id="line2d_9">
      <path d="M 32.4 583.2 
L 583.2 32.4 
" clip-path="url(#p472fd73b76)" style="fill: none; stroke: #b0b0b0; stroke-width: 0.8; stroke-linecap: square"/>
     </g>
    </g>
    <g id="xtick_10">
     <g id="line2d_10">
      <path d="M 97.2 583.2 
L 648 32.4 
" clip-path="url(#p472fd73b76)" style="fill: none; stroke: #b0b0b0; stroke-width: 0.8; stroke-linecap: square"/>
     </g>
     <g id="line2d_11">
      <defs>
       <path id="mde99d057e7" d="M 0 0 
L 0 3.5 
" style="stroke: #000000; stroke-width: 0.8"/>
      </defs>
      <g>
       <use xlink:href="#mde99d057e7" x="97.2" y="583.2" style="stroke: #000000; stroke-width: 0.8"/>
      </g>
     </g>
     <g id="text_1">
      <!-- −20 -->
      <g transform="translate(86.647656 597.798437) scale(0.1 -0.1)">
       <defs>
        <path id="DejaVuSans-2212" d="M 678 2272 
L 4684 2272 
L 4684 1741 
L 678 1741 
L 678 2272 
z
" transform="scale(0.015625)"/>
        <path id="DejaVuSans-32" d="M 1228 531 
L 3431 531 
L 3431 0 
L 469 0 
L 469 531 
Q 828 903 1448 1529 
Q 2069 2156 2228 2338 
Q 2531 2678 2651 2914 
Q 2772 3150 2772 3378 
Q 2772 3750 2511 3984 
Q 2250 4219 1831 4219 
Q 1534 4219 1204 4116 
Q 875 4013 500 3803 
L 500 4441 
Q 881 4594 1212 4672 
Q 1544 4750 1819 4750 
Q 2544 4750 2975 4387 
Q 3406 4025 3406 3419 
Q 3406 3131 3298 2873 
Q 3191 2616 2906 2266 
Q 2828 2175 2409 1742 
Q 1991 1309 1228 531 
z
" transform="scale(0.015625)"/>
        <path id="DejaVuSans-30" d="M 2034 4250 
Q 1547 4250 1301 3770 
Q 1056 3291 1056 2328 
Q 1056 1369 1301 889 
Q 1547 409 2034 409 
Q 2525 409 2770 889 
Q 3016 1369 3016 2328 
Q 3016 3291 2770 3770 
Q 2525 4250 2034 4250 
z
M 2034 4750 
Q 2819 4750 3233 4129 
Q 3647 3509 3647 2328 
Q 3647 1150 3233 529 
Q 2819 -91 2034 -91 
Q 1250 -91 836 529 
Q 422 1150 422 2328 
Q 422 3509 836 4129 
Q 1250 4750 2034 4750 
z
" transform="scale(0.015625)"/>
       </defs>
       <use xlink:href="#DejaVuSans-2212"/>
       <use xlink:href="#DejaVuSans-32" transform="translate(83.789062 0)"/>
       <use xlink:href="#DejaVuSans-30" transform="translate(147.412109 0)"/>
      </g>
     </g>
    </g>
    <g id="xtick_11">
     <g id="line2d_12">
      <path d="M 162 583.2 
L 649 96.2 
" clip-path="url(#p472fd73b76)" style="fill: none; stroke: #b0b0b0; stroke-width: 0.8; stroke-linecap: square"/>
     </g>
     <g id="line2d_13">
      <g>
       <use xlink:href="#mde99d057e7" x="162" y="583.2" style="stroke: #000000; stroke-width: 0.8"/>
      </g>
     </g>
     <g id="text_2">
      <!-- −10 -->
      <g transform="translate(151.447656 597.798437) scale(0.1 -0.1)">
       <defs>
        <path id="DejaVuSans-31" d="M 794 531 
L 1825 531 
L 1825 4091 
L 703 3866 
L 703 4441 
L 1819 4666 
L 2450 4666 
L 2450 531 
L 3481 531 
L 3481 0 
L 794 0 
L 794 531 
z
" transform="scale(0.015625)"/>
       </defs>
       <use xlink:href="#DejaVuSans-2212"/>
       <use xlink:href="#DejaVuSans-31" transform="translate(83.789062 0)"/>
       <use xlink:href="#DejaVuSans-30" transform="translate(147.412109 0)"/>
      </g>
     </g>
    </g>
    <g id="xtick_12">
     <g id="line2d_14">
      <path d="M 226.8 583.2 
L 649 161 
" clip-path="url(#p472fd73b76)" style="fill: none; stroke: #b0b0b0; stroke-width: 0.8; stroke-linecap: square"/>
     </g>
     <g id="line2d_15">
      <g>
       <use xlink:href="#mde99d057e7" x="226.8" y="583.2" style="stroke: #000000; stroke-width: 0.8"/>
      </g>
     </g>
     <g id="text_3">
      <!-- 0 -->
      <g transform="translate(223.61875 597.798437) scale(0.1 -0.1)">
       <use xlink:href="#DejaVuSans-30"/>
      </g>
     </g>
    </g>
    <g id="xtick_13">
     <g id="line2d_16">
      <path d="M 291.6 583.2 
L 649 225.8 
" clip-path="url(#p472fd73b76)" style="fill: none; stroke: #b0b0b0; stroke-width: 0.8; stroke-linecap: square"/>
     </g>
     <g id="line2d_17">
      <g>
       <use xlink:href="#mde99d057e7" x="291.6" y="583.2" style="stroke: #000000; stroke-width: 0.8"/>
      </g>
     </g>
     <g id="text_4">
      <!-- 10 -->
      <g transform="translate(285.2375 597.798437) scale(0.1 -0.1)">
       <use xlink:href="#DejaVuSans-31"/>
       <use xlink:href="#DejaVuSans-30" transform="translate(63.623047 0)"/>
      </g>
     </g>
    </g>
    <g id="xtick_14">
     <g id="line2d_18">
      <path d="M 356.4 583.2 
L 649 290.6 
" clip-path="url(#p472fd73b76)" style="fill: none; stroke: #b0b0b0; stroke-width: 0.8; stroke-linecap: square"/>
     </g>
     <g id="line2d_19">
      <g>
       <use xlink:href="#mde99d057e7" x="356.4" y="583.2" style="stroke: #000000; stroke-width: 0.8"/>
      </g>
     </g>
     <g id="text_5">
      <!-- 20 -->
      <g transform="translate(350.0375 597.798437) scale(0.1 -0.1)">
       <use xlink:href="#DejaVuSans-32"/>
       <use xlink:href="#DejaVuSans-30" transform="translate(63.623047 0)"/>
      </g>
     </g>
    </g>
    <g id="xtick_15">
     <g id="line2d_20">
      <path d="M 421.2 583.2 
L 649 355.4 
" clip-path="url(#p472fd73b76)" style="fill: none; stroke: #b0b0b0; stroke-width: 0.8; stroke-linecap: square"/>
     </g>
     <g id="line2d_21">
      <g>
       <use xlink:href="#mde99d057e7" x="421.2" y="583.2" style="stroke: #000000; stroke-width: 0.8"/>
      </g>
     </g>
     <g id="text_6">
      <!-- 30 -->
      <g transform="translate(414.8375 597.798437) scale(0.1 -0.1)">
       <defs>
        <path id="DejaVuSans-33" d="M 2597 2516 
Q 3050 2419 3304 2112 
Q 3559 1806 3559 1356 
Q 3559 666 3084 287 
Q 2609 -91 1734 -91 
Q 1441 -91 1130 -33 
Q 819 25 488 141 
L 488 750 
Q 750 597 1062 519 
Q 1375 441 1716 441 
Q 2309 441 2620 675 
Q 2931 909 2931 1356 
Q 2931 1769 2642 2001 
Q 2353 2234 1838 2234 
L 1294 2234 
L 1294 2753 
L 1863 2753 
Q 2328 2753 2575 2939 
Q 2822 3125 2822 3475 
Q 2822 3834 2567 4026 
Q 2313 4219 1838 4219 
Q 1578 4219 1281 4162 
Q 984 4106 628 3988 
L 628 4550 
Q 988 4650 1302 4700 
Q 1616 4750 1894 4750 
Q 2613 4750 3031 4423 
Q 3450 4097 3450 3541 
Q 3450 3153 3228 2886 
Q 3006 2619 2597 2516 
z
" transform="scale(0.015625)"/>
       </defs>
       <use xlink:href="#DejaVuSans-33"/>
       <use xlink:href="#DejaVuSans-30" transform="translate(63.623047 0)"/>
      </g>
     </g>
    </g>
    <g id="text_7">
     <!-- $T$ (°C) -->
     <g transform="translate(228.45 611.476562) scale(0.1 -0.1)">
      <defs>
       <path id="DejaVuSans-Oblique-54" d="M 378 4666 
L 4325 4666 
L 4225 4134 
L 2559 4134 
L 1759 0 
L 1125 0 
L 1925 4134 
L 275 4134 
L 378 4666 
z
" transform="scale(0.015625)"/>
       <path id="DejaVuSans-20" transform="scale(0.015625)"/>
       <path id="DejaVuSans-28" d="M 1984 4856 
Q 1566 4138 1362 3434 
Q 1159 2731 1159 2009 
Q 1159 1288 1364 580 
Q 1569 -128 1984 -844 
L 1484 -844 
Q 1016 -109 783 600 
Q 550 1309 550 2009 
Q 550 2706 781 3412 
Q 1013 4119 1484 4856 
L 1984 4856 
z
" transform="scale(0.015625)"/>
       <path id="DejaVuSans-b0" d="M 1600 4347 
Q 1350 4347 1178 4173 
Q 1006 4000 1006 3750 
Q 1006 3503 1178 3333 
Q 1350 3163 1600 3163 
Q 1850 3163 2022 3333 
Q 2194 3503 2194 3750 
Q 2194 3997 2020 4172 
Q 1847 4347 1600 4347 
z
M 1600 4750 
Q 1800 4750 1984 4673 
Q 2169 4597 2303 4453 
Q 2447 4313 2519 4134 
Q 2591 3956 2591 3750 
Q 2591 3338 2302 3052 
Q 2013 2766 1594 2766 
Q 1172 2766 890 3047 
Q 609 3328 609 3750 
Q 609 4169 896 4459 
Q 1184 4750 1600 4750 
z
" transform="scale(0.015625)"/>
       <path id="DejaVuSans-43" d="M 4122 4306 
L 4122 3641 
Q 3803 3938 3442 4084 
Q 3081 4231 2675 4231 
Q 1875 4231 1450 3742 
Q 1025 3253 1025 2328 
Q 1025 1406 1450 917 
Q 1875 428 2675 428 
Q 3081 428 3442 575 
Q 3803 722 4122 1019 
L 4122 359 
Q 3791 134 3420 21 
Q 3050 -91 2638 -91 
Q 1578 -91 968 557 
Q 359 1206 359 2328 
Q 359 3453 968 4101 
Q 1578 4750 2638 4750 
Q 3056 4750 3426 4639 
Q 3797 4528 4122 4306 
z
" transform="scale(0.015625)"/>
       <path id="DejaVuSans-29" d="M 513 4856 
L 1013 4856 
Q 1481 4119 1714 3412 
Q 1947 2706 1947 2009 
Q 1947 1309 1714 600 
Q 1481 -109 1013 -844 
L 513 -844 
Q 928 -128 1133 580 
Q 1338 1288 1338 2009 
Q 1338 2731 1133 3434 
Q 928 4138 513 4856 
z
" transform="scale(0.015625)"/>
      </defs>
      <use xlink:href="#DejaVuSans-Oblique-54" transform="translate(0 0.125)"/>
      <use xlink:href="#DejaVuSans-20" transform="translate(61.083984 0.125)"/>
      <use xlink:href="#DejaVuSans-28" transform="translate(92.871094 0.125)"/>
      <use xlink:href="#DejaVuSans-b0" transform="translate(131.884766 0.125)"/>
      <use xlink:href="#DejaVuSans-43" transform="translate(181.884766 0.125)"/>
      <use xlink:href="#DejaVuSans-29" transform="translate(251.708984 0.125)"/>
     </g>
    </g>
   </g>
   <g id="matplotlib.axis_2">
    <g id="ytick_1">
     <g id="line2d_22">
      <path d="M 64.8 46.98 
L 421.2 46.98 
" clip-path="url(#p472fd73b76)" style="fill: none; stroke: #b0b0b0; stroke-width: 0.8; stroke-linecap: square"/>
     </g>
     <g id="line2d_23">
      <defs>
       <path id="md473a09363" d="M 0 0 
L -3.5 0 
" style="stroke: #000000; stroke-width: 0.8"/>
      </defs>
      <g>
       <use xlink:href="#md473a09363" x="64.8" y="46.98" style="stroke: #000000; stroke-width: 0.8"/>
      </g>
     </g>
     <g id="text_8">
      <!-- 100 -->
      <g transform="translate(38.7125 50.779219) scale(0.1 -0.1)">
       <use xlink:href="#DejaVuSans-31"/>
       <use xlink:href="#DejaVuSans-30" transform="translate(63.623047 0)"/>
       <use xlink:href="#DejaVuSans-30" transform="translate(127.246094 0)"/>
      </g>
     </g>
    </g>
    <g id="ytick_2">
     <g id="line2d_24">
      <path d="M 64.8 204.009287 
L 421.2 204.009287 
" clip-path="url(#p472fd73b76)" style="fill: none; stroke: #b0b0b0; stroke-width: 0.8; stroke-linecap: square"/>
     </g>
     <g id="line2d_25">
      <g>
       <use xlink:href="#md473a09363" x="64.8" y="204.009287" style="stroke: #000000; stroke-width: 0.8"/>
      </g>
     </g>
     <g id="text_9">
      <!-- 200 -->
      <g transform="translate(38.7125 207.808506) scale(0.1 -0.1)">
       <use xlink:href="#DejaVuSans-32"/>
       <use xlink:href="#DejaVuSans-30" transform="translate(63.623047 0)"/>
       <use xlink:href="#DejaVuSans-30" transform="translate(127.246094 0)"/>
      </g>
     </g>
    </g>
    <g id="ytick_3">
     <g id="line2d_26">
      <path d="M 64.8 295.865531 
L 421.2 295.865531 
" clip-path="url(#p472fd73b76)" style="fill: none; stroke: #b0b0b0; stroke-width: 0.8; stroke-linecap: square"/>
     </g>
     <g id="line2d_27">
      <g>
       <use xlink:href="#md473a09363" x="64.8" y="295.865531" style="stroke: #000000; stroke-width: 0.8"/>
      </g>
     </g>
     <g id="text_10">
      <!-- 300 -->
      <g transform="translate(38.7125 299.66475) scale(0.1 -0.1)">
       <use xlink:href="#DejaVuSans-33"/>
       <use xlink:href="#DejaVuSans-30" transform="translate(63.623047 0)"/>
       <use xlink:href="#DejaVuSans-30" transform="translate(127.246094 0)"/>
      </g>
     </g>
    </g>
    <g id="ytick_4">
     <g id="line2d_28">
      <path d="M 64.8 361.038574 
L 421.2 361.038574 
" clip-path="url(#p472fd73b76)" style="fill: none; stroke: #b0b0b0; stroke-width: 0.8; stroke-linecap: square"/>
     </g>
     <g id="line2d_29">
      <g>
       <use xlink:href="#md473a09363" x="64.8" y="361.038574" style="stroke: #000000; stroke-width: 0.8"/>
      </g>
     </g>
     <g id="text_11">
      <!-- 400 -->
      <g transform="translate(38.7125 364.837793) scale(0.1 -0.1)">
       <defs>
        <path id="DejaVuSans-34" d="M 2419 4116 
L 825 1625 
L 2419 1625 
L 2419 4116 
z
M 2253 4666 
L 3047 4666 
L 3047 1625 
L 3713 1625 
L 3713 1100 
L 3047 1100 
L 3047 0 
L 2419 0 
L 2419 1100 
L 313 1100 
L 313 1709 
L 2253 4666 
z
" transform="scale(0.015625)"/>
       </defs>
       <use xlink:href="#DejaVuSans-34"/>
       <use xlink:href="#DejaVuSans-30" transform="translate(63.623047 0)"/>
       <use xlink:href="#DejaVuSans-30" transform="translate(127.246094 0)"/>
      </g>
     </g>
    </g>
    <g id="ytick_5">
     <g id="line2d_30">
      <path d="M 64.8 411.590713 
L 421.2 411.590713 
" clip-path="url(#p472fd73b76)" style="fill: none; stroke: #b0b0b0; stroke-width: 0.8; stroke-linecap: square"/>
     </g>
     <g id="line2d_31">
      <g>
       <use xlink:href="#md473a09363" x="64.8" y="411.590713" style="stroke: #000000; stroke-width: 0.8"/>
      </g>
     </g>
     <g id="text_12">
      <!-- 500 -->
      <g transform="translate(38.7125 415.389932) scale(0.1 -0.1)">
       <defs>
        <path id="DejaVuSans-35" d="M 691 4666 
L 3169 4666 
L 3169 4134 
L 1269 4134 
L 1269 2991 
Q 1406 3038 1543 3061 
Q 1681 3084 1819 3084 
Q 2600 3084 3056 2656 
Q 3513 2228 3513 1497 
Q 3513 744 3044 326 
Q 2575 -91 1722 -91 
Q 1428 -91 1123 -41 
Q 819 9 494 109 
L 494 744 
Q 775 591 1075 516 
Q 1375 441 1709 441 
Q 2250 441 2565 725 
Q 2881 1009 2881 1497 
Q 2881 1984 2565 2268 
Q 2250 2553 1709 2553 
Q 1456 2553 1204 2497 
Q 953 2441 691 2322 
L 691 4666 
z
" transform="scale(0.015625)"/>
       </defs>
       <use xlink:href="#DejaVuSans-35"/>
       <use xlink:href="#DejaVuSans-30" transform="translate(63.623047 0)"/>
       <use xlink:href="#DejaVuSans-30" transform="translate(127.246094 0)"/>
      </g>
     </g>
    </g>
    <g id="ytick_6">
     <g id="line2d_32">
      <path d="M 64.8 452.894818 
L 421.2 452.894818 
" clip-path="url(#p472fd73b76)" style="fill: none; stroke: #b0b0b0; stroke-width: 0.8; stroke-linecap: square"/>
     </g>
     <g id="line2d_33">
      <g>
       <use xlink:href="#md473a09363" x="64.8" y="452.894818" style="stroke: #000000; stroke-width: 0.8"/>
      </g>
     </g>
     <g id="text_13">
      <!-- 600 -->
      <g transform="translate(38.7125 456.694037) scale(0.1 -0.1)">
       <defs>
        <path id="DejaVuSans-36" d="M 2113 2584 
Q 1688 2584 1439 2293 
Q 1191 2003 1191 1497 
Q 1191 994 1439 701 
Q 1688 409 2113 409 
Q 2538 409 2786 701 
Q 3034 994 3034 1497 
Q 3034 2003 2786 2293 
Q 2538 2584 2113 2584 
z
M 3366 4563 
L 3366 3988 
Q 3128 4100 2886 4159 
Q 2644 4219 2406 4219 
Q 1781 4219 1451 3797 
Q 1122 3375 1075 2522 
Q 1259 2794 1537 2939 
Q 1816 3084 2150 3084 
Q 2853 3084 3261 2657 
Q 3669 2231 3669 1497 
Q 3669 778 3244 343 
Q 2819 -91 2113 -91 
Q 1303 -91 875 529 
Q 447 1150 447 2328 
Q 447 3434 972 4092 
Q 1497 4750 2381 4750 
Q 2619 4750 2861 4703 
Q 3103 4656 3366 4563 
z
" transform="scale(0.015625)"/>
       </defs>
       <use xlink:href="#DejaVuSans-36"/>
       <use xlink:href="#DejaVuSans-30" transform="translate(63.623047 0)"/>
       <use xlink:href="#DejaVuSans-30" transform="translate(127.246094 0)"/>
      </g>
     </g>
    </g>
    <g id="ytick_7">
     <g id="line2d_34">
      <path d="M 64.8 487.816942 
L 421.2 487.816942 
" clip-path="url(#p472fd73b76)" style="fill: none; stroke: #b0b0b0; stroke-width: 0.8; stroke-linecap: square"/>
     </g>
     <g id="line2d_35">
      <g>
       <use xlink:href="#md473a09363" x="64.8" y="487.816942" style="stroke: #000000; stroke-width: 0.8"/>
      </g>
     </g>
     <g id="text_14">
      <!-- 700 -->
      <g transform="translate(38.7125 491.61616) scale(0.1 -0.1)">
       <defs>
        <path id="DejaVuSans-37" d="M 525 4666 
L 3525 4666 
L 3525 4397 
L 1831 0 
L 1172 0 
L 2766 4134 
L 525 4134 
L 525 4666 
z
" transform="scale(0.015625)"/>
       </defs>
       <use xlink:href="#DejaVuSans-37"/>
       <use xlink:href="#DejaVuSans-30" transform="translate(63.623047 0)"/>
       <use xlink:href="#DejaVuSans-30" transform="translate(127.246094 0)"/>
      </g>
     </g>
    </g>
    <g id="ytick_8">
     <g id="line2d_36">
      <path d="M 64.8 518.067861 
L 421.2 518.067861 
" clip-path="url(#p472fd73b76)" style="fill: none; stroke: #b0b0b0; stroke-width: 0.8; stroke-linecap: square"/>
     </g>
     <g id="line2d_37">
      <g>
       <use xlink:href="#md473a09363" x="64.8" y="518.067861" style="stroke: #000000; stroke-width: 0.8"/>
      </g>
     </g>
     <g id="text_15">
      <!-- 800 -->
      <g transform="translate(38.7125 521.86708) scale(0.1 -0.1)">
       <defs>
        <path id="DejaVuSans-38" d="M 2034 2216 
Q 1584 2216 1326 1975 
Q 1069 1734 1069 1313 
Q 1069 891 1326 650 
Q 1584 409 2034 409 
Q 2484 409 2743 651 
Q 3003 894 3003 1313 
Q 3003 1734 2745 1975 
Q 2488 2216 2034 2216 
z
M 1403 2484 
Q 997 2584 770 2862 
Q 544 3141 544 3541 
Q 544 4100 942 4425 
Q 1341 4750 2034 4750 
Q 2731 4750 3128 4425 
Q 3525 4100 3525 3541 
Q 3525 3141 3298 2862 
Q 3072 2584 2669 2484 
Q 3125 2378 3379 2068 
Q 3634 1759 3634 1313 
Q 3634 634 3220 271 
Q 2806 -91 2034 -91 
Q 1263 -91 848 271 
Q 434 634 434 1313 
Q 434 1759 690 2068 
Q 947 2378 1403 2484 
z
M 1172 3481 
Q 1172 3119 1398 2916 
Q 1625 2713 2034 2713 
Q 2441 2713 2670 2916 
Q 2900 3119 2900 3481 
Q 2900 3844 2670 4047 
Q 2441 4250 2034 4250 
Q 1625 4250 1398 4047 
Q 1172 3844 1172 3481 
z
" transform="scale(0.015625)"/>
       </defs>
       <use xlink:href="#DejaVuSans-38"/>
       <use xlink:href="#DejaVuSans-30" transform="translate(63.623047 0)"/>
       <use xlink:href="#DejaVuSans-30" transform="translate(127.246094 0)"/>
      </g>
     </g>
    </g>
    <g id="ytick_9">
     <g id="line2d_38">
      <path d="M 64.8 544.751063 
L 421.2 544.751063 
" clip-path="url(#p472fd73b76)" style="fill: none; stroke: #b0b0b0; stroke-width: 0.8; stroke-linecap: square"/>
     </g>
     <g id="line2d_39">
      <g>
       <use xlink:href="#md473a09363" x="64.8" y="544.751063" style="stroke: #000000; stroke-width: 0.8"/>
      </g>
     </g>
     <g id="text_16">
      <!-- 900 -->
      <g transform="translate(38.7125 548.550281) scale(0.1 -0.1)">
       <defs>
        <path id="DejaVuSans-39" d="M 703 97 
L 703 672 
Q 941 559 1184 500 
Q 1428 441 1663 441 
Q 2288 441 2617 861 
Q 2947 1281 2994 2138 
Q 2813 1869 2534 1725 
Q 2256 1581 1919 1581 
Q 1219 1581 811 2004 
Q 403 2428 403 3163 
Q 403 3881 828 4315 
Q 1253 4750 1959 4750 
Q 2769 4750 3195 4129 
Q 3622 3509 3622 2328 
Q 3622 1225 3098 567 
Q 2575 -91 1691 -91 
Q 1453 -91 1209 -44 
Q 966 3 703 97 
z
M 1959 2075 
Q 2384 2075 2632 2365 
Q 2881 2656 2881 3163 
Q 2881 3666 2632 3958 
Q 2384 4250 1959 4250 
Q 1534 4250 1286 3958 
Q 1038 3666 1038 3163 
Q 1038 2656 1286 2365 
Q 1534 2075 1959 2075 
z
" transform="scale(0.015625)"/>
       </defs>
       <use xlink:href="#DejaVuSans-39"/>
       <use xlink:href="#DejaVuSans-30" transform="translate(63.623047 0)"/>
       <use xlink:href="#DejaVuSans-30" transform="translate(127.246094 0)"/>
      </g>
     </g>
    </g>
    <g id="ytick_10">
     <g id="line2d_40">
      <path d="M 64.8 568.62 
L 421.2 568.62 
" clip-path="url(#p472fd73b76)" style="fill: none; stroke: #b0b0b0; stroke-width: 0.8; stroke-linecap: square"/>
     </g>
     <g id="line2d_41">
      <g>
       <use xlink:href="#md473a09363" x="64.8" y="568.62" style="stroke: #000000; stroke-width: 0.8"/>
      </g>
     </g>
     <g id="text_17">
      <!-- 1000 -->
      <g transform="translate(32.35 572.419219) scale(0.1 -0.1)">
       <use xlink:href="#DejaVuSans-31"/>
       <use xlink:href="#DejaVuSans-30" transform="translate(63.623047 0)"/>
       <use xlink:href="#DejaVuSans-30" transform="translate(127.246094 0)"/>
       <use xlink:href="#DejaVuSans-30" transform="translate(190.869141 0)"/>
      </g>
     </g>
    </g>
    <g id="text_18">
     <!-- $P$ (hPa) -->
     <g transform="translate(26.270312 325.6) rotate(-90) scale(0.1 -0.1)">
      <defs>
       <path id="DejaVuSans-Oblique-50" d="M 1081 4666 
L 2541 4666 
Q 3178 4666 3512 4369 
Q 3847 4072 3847 3500 
Q 3847 2731 3353 2303 
Q 2859 1875 1966 1875 
L 1172 1875 
L 806 0 
L 172 0 
L 1081 4666 
z
M 1613 4147 
L 1275 2394 
L 2069 2394 
Q 2606 2394 2893 2669 
Q 3181 2944 3181 3456 
Q 3181 3784 2986 3965 
Q 2791 4147 2438 4147 
L 1613 4147 
z
" transform="scale(0.015625)"/>
       <path id="DejaVuSans-68" d="M 3513 2113 
L 3513 0 
L 2938 0 
L 2938 2094 
Q 2938 2591 2744 2837 
Q 2550 3084 2163 3084 
Q 1697 3084 1428 2787 
Q 1159 2491 1159 1978 
L 1159 0 
L 581 0 
L 581 4863 
L 1159 4863 
L 1159 2956 
Q 1366 3272 1645 3428 
Q 1925 3584 2291 3584 
Q 2894 3584 3203 3211 
Q 3513 2838 3513 2113 
z
" transform="scale(0.015625)"/>
       <path id="DejaVuSans-50" d="M 1259 4147 
L 1259 2394 
L 2053 2394 
Q 2494 2394 2734 2622 
Q 2975 2850 2975 3272 
Q 2975 3691 2734 3919 
Q 2494 4147 2053 4147 
L 1259 4147 
z
M 628 4666 
L 2053 4666 
Q 2838 4666 3239 4311 
Q 3641 3956 3641 3272 
Q 3641 2581 3239 2228 
Q 2838 1875 2053 1875 
L 1259 1875 
L 1259 0 
L 628 0 
L 628 4666 
z
" transform="scale(0.015625)"/>
       <path id="DejaVuSans-61" d="M 2194 1759 
Q 1497 1759 1228 1600 
Q 959 1441 959 1056 
Q 959 750 1161 570 
Q 1363 391 1709 391 
Q 2188 391 2477 730 
Q 2766 1069 2766 1631 
L 2766 1759 
L 2194 1759 
z
M 3341 1997 
L 3341 0 
L 2766 0 
L 2766 531 
Q 2569 213 2275 61 
Q 1981 -91 1556 -91 
Q 1019 -91 701 211 
Q 384 513 384 1019 
Q 384 1609 779 1909 
Q 1175 2209 1959 2209 
L 2766 2209 
L 2766 2266 
Q 2766 2663 2505 2880 
Q 2244 3097 1772 3097 
Q 1472 3097 1187 3025 
Q 903 2953 641 2809 
L 641 3341 
Q 956 3463 1253 3523 
Q 1550 3584 1831 3584 
Q 2591 3584 2966 3190 
Q 3341 2797 3341 1997 
z
" transform="scale(0.015625)"/>
      </defs>
      <use xlink:href="#DejaVuSans-Oblique-50" transform="translate(0 0.015625)"/>
      <use xlink:href="#DejaVuSans-20" transform="translate(60.302734 0.015625)"/>
      <use xlink:href="#DejaVuSans-28" transform="translate(92.089844 0.015625)"/>
      <use xlink:href="#DejaVuSans-68" transform="translate(131.103516 0.015625)"/>
      <use xlink:href="#DejaVuSans-50" transform="translate(194.482422 0.015625)"/>
      <use xlink:href="#DejaVuSans-61" transform="translate(254.785156 0.015625)"/>
      <use xlink:href="#DejaVuSans-29" transform="translate(316.064453 0.015625)"/>
     </g>
    </g>
   </g>
   <g id="LineCollection_1">
    <path clip-path="url(#p472fd73b76)" style="fill: none; stroke-dasharray: 5.55,2.4; stroke-dashoffset: 0; stroke: #ff0000; stroke-opacity: 0.5; stroke-width: 1.5"/>
    <path d="M 58.044723 579.673186 
L 53.781748 575.451031 
L 49.484165 571.148691 
L 45.151279 566.76306 
L 40.782376 562.290851 
L 36.376723 557.728574 
L 31.933568 553.072529 
L 27.452136 548.31878 
L 22.931637 543.463138 
L 18.371255 538.501139 
L 13.77016 533.428019 
L 9.127497 528.238688 
L 4.442397 522.927696 
L -0.28603 517.489201 
L -1 516.655612 
" clip-path="url(#p472fd73b76)" style="fill: none; stroke-dasharray: 5.55,2.4; stroke-dashoffset: 0; stroke: #ff0000; stroke-opacity: 0.5; stroke-width: 1.5"/>
    <path d="M 123.754364 579.673186 
L 119.142422 575.451031 
L 114.491151 571.148691 
L 109.799699 566.76306 
L 105.067189 562.290851 
L 100.292713 557.728574 
L 95.475336 553.072529 
L 90.614091 548.31878 
L 85.707979 543.463138 
L 80.755972 538.501139 
L 75.757006 533.428019 
L 70.709985 528.238688 
L 65.613776 522.927696 
L 60.467216 517.489201 
L 55.269101 511.91693 
L 50.018196 506.204136 
L 44.71323 500.343548 
L 39.352897 494.327314 
L 33.935858 488.146942 
L 28.460746 481.793224 
L 22.926162 475.256154 
L 17.330685 468.524834 
L 11.672876 461.587367 
L 5.951285 454.430725 
L 0.16446 447.040607 
L -1 445.520882 
" clip-path="url(#p472fd73b76)" style="fill: none; stroke-dasharray: 5.55,2.4; stroke-dashoffset: 0; stroke: #ff0000; stroke-opacity: 0.5; stroke-width: 1.5"/>
    <path d="M 189.464004 579.673186 
L 184.503096 575.451031 
L 179.498136 571.148691 
L 174.448119 566.76306 
L 169.352002 562.290851 
L 164.208703 557.728574 
L 159.017104 553.072529 
L 153.776045 548.31878 
L 148.484322 543.463138 
L 143.140689 538.501139 
L 137.743853 533.428019 
L 132.292472 528.238688 
L 126.785156 522.927696 
L 121.220461 517.489201 
L 115.596892 511.91693 
L 109.912896 506.204136 
L 104.166865 500.343548 
L 98.357132 494.327314 
L 92.481969 488.146942 
L 86.539591 481.793224 
L 80.528149 475.256154 
L 74.445736 468.524834 
L 68.290385 461.587367 
L 62.060075 454.430725 
L 55.752731 447.040607 
L 49.366234 439.401264 
L 42.898431 431.495297 
L 36.347144 423.30342 
L 29.710196 414.804176 
L 22.985427 405.973598 
L 16.170738 396.784799 
L 9.26413 387.207484 
L 2.263772 377.207342 
L -1 372.395167 
" clip-path="url(#p472fd73b76)" style="fill: none; stroke-dasharray: 5.55,2.4; stroke-dashoffset: 0; stroke: #ff0000; stroke-opacity: 0.5; stroke-width: 1.5"/>
    <path d="M 255.173645 579.673186 
L 249.863769 575.451031 
L 244.505122 571.148691 
L 239.096539 566.76306 
L 233.636815 562.290851 
L 228.124693 557.728574 
L 222.558873 553.072529 
L 216.937999 548.31878 
L 211.260665 543.463138 
L 205.525406 538.501139 
L 199.7307 533.428019 
L 193.87496 528.238688 
L 187.956535 522.927696 
L 181.973707 517.489201 
L 175.924683 511.91693 
L 169.807596 506.204136 
L 163.6205 500.343548 
L 157.361367 494.327314 
L 151.02808 488.146942 
L 144.618436 481.793224 
L 138.130137 475.256154 
L 131.560787 468.524834 
L 124.907894 461.587367 
L 118.168864 454.430725 
L 111.341001 447.040607 
L 104.421506 439.401264 
L 97.407483 431.495297 
L 90.29594 423.30342 
L 83.083799 414.804176 
L 75.76791 405.973598 
L 68.34507 396.784799 
L 60.812053 387.207484 
L 53.165657 377.207342 
L 45.402757 366.745308 
L 37.520398 355.776638 
L 29.515912 344.249756 
L 21.387095 332.104783 
L 13.132444 319.271659 
L 4.751516 305.667692 
L -1 295.881319 
" clip-path="url(#p472fd73b76)" style="fill: none; stroke-dasharray: 5.55,2.4; stroke-dashoffset: 0; stroke: #ff0000; stroke-opacity: 0.5; stroke-width: 1.5"/>
    <path d="M 320.883285 579.673186 
L 315.224443 575.451031 
L 309.512107 571.148691 
L 303.74496 566.76306 
L 297.921628 562.290851 
L 292.040683 557.728574 
L 286.100641 553.072529 
L 280.099953 548.31878 
L 274.037008 543.463138 
L 267.910123 538.501139 
L 261.717547 533.428019 
L 255.457447 528.238688 
L 249.127915 522.927696 
L 242.726953 517.489201 
L 236.252474 511.91693 
L 229.702296 506.204136 
L 223.074136 500.343548 
L 216.365602 494.327314 
L 209.574191 488.146942 
L 202.697282 481.793224 
L 195.732124 475.256154 
L 188.675838 468.524834 
L 181.525404 461.587367 
L 174.277654 454.430725 
L 166.929271 447.040607 
L 159.476779 439.401264 
L 151.916536 431.495297 
L 144.244736 423.30342 
L 136.457403 414.804176 
L 128.550392 405.973598 
L 120.519401 396.784799 
L 112.359977 387.207484 
L 104.067542 377.207342 
L 95.637429 366.745308 
L 87.064935 355.776638 
L 78.345408 344.249756 
L 69.474368 332.104783 
L 60.447696 319.271659 
L 51.261902 305.667692 
L 41.914534 291.194327 
L 32.404786 275.732809 
L 22.734416 259.138256 
L 12.909174 241.231383 
L 2.941024 221.786668 
L -1 213.47761 
" clip-path="url(#p472fd73b76)" style="fill: none; stroke-dasharray: 5.55,2.4; stroke-dashoffset: 0; stroke: #ff0000; stroke-opacity: 0.5; stroke-width: 1.5"/>
    <path d="M 386.592926 579.673186 
L 380.585116 575.451031 
L 374.519093 571.148691 
L 368.39338 566.76306 
L 362.20644 562.290851 
L 355.956673 557.728574 
L 349.642409 553.072529 
L 343.261907 548.31878 
L 336.81335 543.463138 
L 330.29484 538.501139 
L 323.704393 533.428019 
L 317.039935 528.238688 
L 310.299294 522.927696 
L 303.480199 517.489201 
L 296.580265 511.91693 
L 289.596996 506.204136 
L 282.527771 500.343548 
L 275.369837 494.327314 
L 268.120302 488.146942 
L 260.776127 481.793224 
L 253.334112 475.256154 
L 245.790889 468.524834 
L 238.142913 461.587367 
L 230.386444 454.430725 
L 222.517542 447.040607 
L 214.532052 439.401264 
L 206.425589 431.495297 
L 198.193532 423.30342 
L 189.831006 414.804176 
L 181.332875 405.973598 
L 172.693733 396.784799 
L 163.907901 387.207484 
L 154.969428 377.207342 
L 145.872101 366.745308 
L 136.609472 355.776638 
L 127.174903 344.249756 
L 117.561642 332.104783 
L 107.762948 319.271659 
L 97.772289 305.667692 
L 87.583645 291.194327 
L 77.191987 275.732809 
L 66.59402 259.138256 
L 55.789363 241.231383 
L 44.78244 221.786668 
L 33.585589 200.514945 
L 22.2243 177.03694 
L 10.746385 150.841457 
L -0.761263 121.216066 
L -1 120.500821 
" clip-path="url(#p472fd73b76)" style="fill: none; stroke-dasharray: 5.55,2.4; stroke-dashoffset: 0; stroke: #ff0000; stroke-opacity: 0.5; stroke-width: 1.5"/>
    <path d="M 452.302567 579.673186 
L 445.94579 575.451031 
L 439.526079 571.148691 
L 433.0418 566.76306 
L 426.491253 562.290851 
L 419.872663 557.728574 
L 413.184178 553.072529 
L 406.423862 548.31878 
L 399.589693 543.463138 
L 392.679557 538.501139 
L 385.69124 533.428019 
L 378.622423 528.238688 
L 371.470674 522.927696 
L 364.233444 517.489201 
L 356.908056 511.91693 
L 349.491696 506.204136 
L 341.981406 500.343548 
L 334.374072 494.327314 
L 326.666413 488.146942 
L 318.854972 481.793224 
L 310.936099 475.256154 
L 302.90594 468.524834 
L 294.760422 461.587367 
L 286.495233 454.430725 
L 278.105812 447.040607 
L 269.587324 439.401264 
L 260.934642 431.495297 
L 252.142328 423.30342 
L 243.204609 414.804176 
L 234.115357 405.973598 
L 224.868064 396.784799 
L 215.455825 387.207484 
L 205.871313 377.207342 
L 196.106773 366.745308 
L 186.15401 355.776638 
L 176.004399 344.249756 
L 165.648915 332.104783 
L 155.0782 319.271659 
L 144.282675 305.667692 
L 133.252755 291.194327 
L 121.979188 275.732809 
L 110.453623 259.138256 
L 98.669552 241.231383 
L 86.623856 221.786668 
L 74.319429 200.514945 
L 61.769694 177.03694 
L 49.006656 150.841457 
L 36.095869 121.216066 
L 23.165846 87.125303 
L 10.470221 46.98 
" clip-path="url(#p472fd73b76)" style="fill: none; stroke-dasharray: 5.55,2.4; stroke-dashoffset: 0; stroke: #ff0000; stroke-opacity: 0.5; stroke-width: 1.5"/>
    <path d="M 518.012207 579.673186 
L 511.306464 575.451031 
L 504.533064 571.148691 
L 497.690221 566.76306 
L 490.776066 562.290851 
L 483.788653 557.728574 
L 476.725946 553.072529 
L 469.585816 548.31878 
L 462.366036 543.463138 
L 455.064274 538.501139 
L 447.678087 533.428019 
L 440.20491 528.238688 
L 432.642053 522.927696 
L 424.98669 517.489201 
L 417.235847 511.91693 
L 409.386396 506.204136 
L 401.435042 500.343548 
L 393.378307 494.327314 
L 385.212525 488.146942 
L 376.933818 481.793224 
L 368.538087 475.256154 
L 360.020992 468.524834 
L 351.377931 461.587367 
L 342.604023 454.430725 
L 333.694083 447.040607 
L 324.642597 439.401264 
L 315.443695 431.495297 
L 306.091124 423.30342 
L 296.578213 414.804176 
L 286.89784 405.973598 
L 277.042396 396.784799 
L 267.003749 387.207484 
L 256.773199 377.207342 
L 246.341445 366.745308 
L 235.698547 355.776638 
L 224.833894 344.249756 
L 213.736189 332.104783 
L 202.393452 319.271659 
L 190.793062 305.667692 
L 178.921866 291.194327 
L 166.766389 275.732809 
L 154.313227 259.138256 
L 141.549741 241.231383 
L 128.465272 221.786668 
L 115.05327 200.514945 
L 101.315089 177.03694 
L 87.266927 150.841457 
L 72.953 121.216066 
L 58.471904 87.125303 
L 44.033217 46.98 
" clip-path="url(#p472fd73b76)" style="fill: none; stroke-dasharray: 5.55,2.4; stroke-dashoffset: 0; stroke: #ff0000; stroke-opacity: 0.5; stroke-width: 1.5"/>
    <path d="M 583.721848 579.673186 
L 576.667137 575.451031 
L 569.54005 571.148691 
L 562.338641 566.76306 
L 555.060879 562.290851 
L 547.704643 557.728574 
L 540.267714 553.072529 
L 532.74777 548.31878 
L 525.142379 543.463138 
L 517.448991 538.501139 
L 509.664934 533.428019 
L 501.787398 528.238688 
L 493.813433 522.927696 
L 485.739936 517.489201 
L 477.563638 511.91693 
L 469.281096 506.204136 
L 460.888677 500.343548 
L 452.382542 494.327314 
L 443.758636 488.146942 
L 435.012663 481.793224 
L 426.140075 475.256154 
L 417.136043 468.524834 
L 407.99544 461.587367 
L 398.712813 454.430725 
L 389.282353 447.040607 
L 379.697869 439.401264 
L 369.952748 431.495297 
L 360.03992 423.30342 
L 349.951816 414.804176 
L 339.680322 405.973598 
L 329.216728 396.784799 
L 318.551672 387.207484 
L 307.675084 377.207342 
L 296.576117 366.745308 
L 285.243084 355.776638 
L 273.66339 344.249756 
L 261.823463 332.104783 
L 249.708703 319.271659 
L 237.303448 305.667692 
L 224.590976 291.194327 
L 211.55359 275.732809 
L 198.17283 259.138256 
L 184.42993 241.231383 
L 170.306688 221.786668 
L 155.78711 200.514945 
L 140.860483 177.03694 
L 125.527198 150.841457 
L 109.810131 121.216066 
L 93.777962 87.125303 
L 77.596213 46.98 
" clip-path="url(#p472fd73b76)" style="fill: none; stroke-dasharray: 5.55,2.4; stroke-dashoffset: 0; stroke: #ff0000; stroke-opacity: 0.5; stroke-width: 1.5"/>
   </g>
   <g id="LineCollection_2">
    <path clip-path="url(#p472fd73b76)" style="fill: none; stroke-dasharray: 5.55,2.4; stroke-dashoffset: 0; stroke: #0000ff; stroke-opacity: 0.5; stroke-width: 1.5"/>
    <path d="M 56.637455 579.673186 
L 52.950255 575.451031 
L 49.190178 571.148691 
L 45.357279 566.76306 
L 41.451791 562.290851 
L 37.473932 557.728574 
L 33.424042 553.072529 
L 29.302512 548.31878 
L 25.109787 543.463138 
L 20.846357 538.501139 
L 16.51275 533.428019 
L 12.109525 528.238688 
L 7.637259 522.927696 
L 3.096537 517.489201 
L -1 512.536058 
" clip-path="url(#p472fd73b76)" style="fill: none; stroke-dasharray: 5.55,2.4; stroke-dashoffset: 0; stroke: #0000ff; stroke-opacity: 0.5; stroke-width: 1.5"/>
    <path d="M 120.779879 579.673186 
L 117.368756 575.451031 
L 113.858332 571.148691 
L 110.247115 566.76306 
L 106.533918 562.290851 
L 102.717603 557.728574 
L 98.797293 553.072529 
L 94.772294 548.31878 
L 90.642111 543.463138 
L 86.406457 538.501139 
L 82.06525 533.428019 
L 77.618608 528.238688 
L 73.066845 522.927696 
L 68.410452 517.489201 
L 63.65009 511.91693 
L 58.786571 506.204136 
L 53.820828 500.343548 
L 48.753901 494.327314 
L 43.586917 488.146942 
L 38.321053 481.793224 
L 32.957516 475.256154 
L 27.497523 468.524834 
L 21.942266 461.587367 
L 16.2929 454.430725 
L 10.550523 447.040607 
L 4.716162 439.401264 
L -1 431.77446 
" clip-path="url(#p472fd73b76)" style="fill: none; stroke-dasharray: 5.55,2.4; stroke-dashoffset: 0; stroke: #0000ff; stroke-opacity: 0.5; stroke-width: 1.5"/>
    <path d="M 184.006632 579.673186 
L 181.215773 575.451031 
L 178.31321 571.148691 
L 175.294575 566.76306 
L 172.155741 562.290851 
L 168.892401 557.728574 
L 165.500441 553.072529 
L 161.975835 548.31878 
L 158.314707 543.463138 
L 154.513383 538.501139 
L 150.568436 533.428019 
L 146.476735 528.238688 
L 142.235485 522.927696 
L 137.842274 517.489201 
L 133.295107 511.91693 
L 128.592444 506.204136 
L 123.733223 500.343548 
L 118.716863 494.327314 
L 113.543284 488.146942 
L 108.212883 481.793224 
L 102.726516 475.256154 
L 97.085471 468.524834 
L 91.29141 461.587367 
L 85.346315 454.430725 
L 79.252432 447.040607 
L 73.012184 439.401264 
L 66.62812 431.495297 
L 60.102811 423.30342 
L 53.438815 414.804176 
L 46.6386 405.973598 
L 39.704504 396.784799 
L 32.638714 387.207484 
L 25.443245 377.207342 
L 18.119986 366.745308 
L 10.67075 355.776638 
L 3.097405 344.249756 
L -1 337.783159 
" clip-path="url(#p472fd73b76)" style="fill: none; stroke-dasharray: 5.55,2.4; stroke-dashoffset: 0; stroke: #0000ff; stroke-opacity: 0.5; stroke-width: 1.5"/>
    <path d="M 246.49327 579.673186 
L 244.587063 575.451031 
L 242.585109 571.148691 
L 240.481494 566.76306 
L 238.270262 562.290851 
L 235.944839 557.728574 
L 233.498453 553.072529 
L 230.923961 548.31878 
L 228.213869 543.463138 
L 225.360361 538.501139 
L 222.355328 533.428019 
L 219.190413 528.238688 
L 215.85705 522.927696 
L 212.346526 517.489201 
L 208.650071 511.91693 
L 204.758941 506.204136 
L 200.664551 500.343548 
L 196.358593 494.327314 
L 191.833181 488.146942 
L 187.081015 481.793224 
L 182.095534 475.256154 
L 176.871084 468.524834 
L 171.403062 461.587367 
L 165.688044 454.430725 
L 159.723896 447.040607 
L 153.509806 439.401264 
L 147.046332 431.495297 
L 140.335301 423.30342 
L 133.379751 414.804176 
L 126.183761 405.973598 
L 118.75225 396.784799 
L 111.090763 387.207484 
L 103.205189 377.207342 
L 95.101553 366.745308 
L 86.785782 355.776638 
L 78.263541 344.249756 
L 69.540117 332.104783 
L 60.620429 319.271659 
L 51.509149 305.667692 
L 42.211012 291.194327 
L 32.73136 275.732809 
L 23.077064 259.138256 
L 13.257967 241.231383 
L 3.289177 221.786668 
L -1 212.748179 
" clip-path="url(#p472fd73b76)" style="fill: none; stroke-dasharray: 5.55,2.4; stroke-dashoffset: 0; stroke: #0000ff; stroke-opacity: 0.5; stroke-width: 1.5"/>
    <path d="M 277.614101 579.673186 
L 276.190337 575.451031 
L 274.687926 571.148691 
L 273.10135 566.76306 
L 271.424958 562.290851 
L 269.652397 557.728574 
L 267.776976 553.072529 
L 265.791483 548.31878 
L 263.68815 543.463138 
L 261.458645 538.501139 
L 259.094051 533.428019 
L 256.584861 528.238688 
L 253.920947 522.927696 
L 251.091563 517.489201 
L 248.085361 511.91693 
L 244.890424 506.204136 
L 241.494302 500.343548 
L 237.884116 494.327314 
L 234.04665 488.146942 
L 229.968508 481.793224 
L 225.636298 475.256154 
L 221.03685 468.524834 
L 216.157502 461.587367 
L 210.986387 454.430725 
L 205.512771 447.040607 
L 199.727383 439.401264 
L 193.622749 431.495297 
L 187.193465 423.30342 
L 180.436423 414.804176 
L 173.35093 405.973598 
L 165.938711 396.784799 
L 158.203806 387.207484 
L 150.152251 377.207342 
L 141.791767 366.745308 
L 133.131266 355.776638 
L 124.180367 344.249756 
L 114.948877 332.104783 
L 105.446388 319.271659 
L 95.681957 305.667692 
L 85.664008 291.194327 
L 75.400476 275.732809 
L 64.899356 259.138256 
L 54.16978 241.231383 
L 43.223915 221.786668 
L 32.080186 200.514945 
L 20.768688 177.03694 
L 9.340653 150.841457 
L -1 124.098338 
" clip-path="url(#p472fd73b76)" style="fill: none; stroke-dasharray: 5.55,2.4; stroke-dashoffset: 0; stroke: #0000ff; stroke-opacity: 0.5; stroke-width: 1.5"/>
    <path d="M 308.752139 579.673186 
L 307.80193 575.451031 
L 306.792867 571.148691 
L 305.720424 566.76306 
L 304.57994 562.290851 
L 303.366085 557.728574 
L 302.073185 553.072529 
L 300.695023 548.31878 
L 299.224797 543.463138 
L 297.65507 538.501139 
L 295.977719 533.428019 
L 294.183884 528.238688 
L 292.263888 522.927696 
L 290.207162 517.489201 
L 288.002185 511.91693 
L 285.636424 506.204136 
L 283.096234 500.343548 
L 280.366846 494.327314 
L 277.432318 488.146942 
L 274.275509 481.793224 
L 270.878107 475.256154 
L 267.220677 468.524834 
L 263.2828 461.587367 
L 259.04326 454.430725 
L 254.480315 447.040607 
L 249.572125 439.401264 
L 244.29719 431.495297 
L 238.635045 423.30342 
L 232.566898 414.804176 
L 226.076426 405.973598 
L 219.150544 396.784799 
L 211.780123 387.207484 
L 203.960487 377.207342 
L 195.691734 366.745308 
L 186.978679 355.776638 
L 177.830464 344.249756 
L 168.259788 332.104783 
L 158.281939 319.271659 
L 147.913634 305.667692 
L 137.17192 291.194327 
L 126.073251 275.732809 
L 114.632986 259.138256 
L 102.865487 241.231383 
L 90.785105 221.786668 
L 78.408526 200.514945 
L 65.759227 177.03694 
L 52.875704 150.841457 
L 39.8267 121.216066 
L 26.740875 87.125303 
L 13.869045 46.98 
" clip-path="url(#p472fd73b76)" style="fill: none; stroke-dasharray: 5.55,2.4; stroke-dashoffset: 0; stroke: #0000ff; stroke-opacity: 0.5; stroke-width: 1.5"/>
    <path d="M 339.969711 579.673186 
L 339.46219 575.451031 
L 338.915592 571.148691 
L 338.32665 566.76306 
L 337.692003 562.290851 
L 337.007754 557.728574 
L 336.269728 553.072529 
L 335.473312 548.31878 
L 334.613403 543.463138 
L 333.684362 538.501139 
L 332.679951 533.428019 
L 331.593276 528.238688 
L 330.41669 522.927696 
L 329.141699 517.489201 
L 327.758862 511.91693 
L 326.257691 506.204136 
L 324.626477 500.343548 
L 322.852191 494.327314 
L 320.920325 488.146942 
L 318.814708 481.793224 
L 316.517332 475.256154 
L 314.008176 468.524834 
L 311.265015 461.587367 
L 308.263264 454.430725 
L 304.975835 447.040607 
L 301.373073 439.401264 
L 297.42275 431.495297 
L 293.090249 423.30342 
L 288.338884 414.804176 
L 283.130508 405.973598 
L 277.426414 396.784799 
L 271.188574 387.207484 
L 264.381336 377.207342 
L 256.973272 366.745308 
L 248.939279 355.776638 
L 240.262553 344.249756 
L 230.936063 332.104783 
L 220.963292 319.271659 
L 210.357869 305.667692 
L 199.142085 291.194327 
L 187.344415 275.732809 
L 174.996594 259.138256 
L 162.130755 241.231383 
L 148.777366 221.786668 
L 134.964717 200.514945 
L 120.720817 177.03694 
L 106.079188 150.841457 
L 91.091375 121.216066 
L 75.8527 87.125303 
L 60.557511 46.98 
" clip-path="url(#p472fd73b76)" style="fill: none; stroke-dasharray: 5.55,2.4; stroke-dashoffset: 0; stroke: #0000ff; stroke-opacity: 0.5; stroke-width: 1.5"/>
    <path d="M 371.310252 579.673186 
L 371.199288 575.451031 
L 371.067066 571.148691 
L 370.911545 566.76306 
L 370.730651 562.290851 
L 370.521926 557.728574 
L 370.282744 553.072529 
L 370.010179 548.31878 
L 369.700969 543.463138 
L 369.351482 538.501139 
L 368.957672 533.428019 
L 368.515029 528.238688 
L 368.018506 522.927696 
L 367.462441 517.489201 
L 366.84047 511.91693 
L 366.145443 506.204136 
L 365.369261 500.343548 
L 364.502779 494.327314 
L 363.535644 488.146942 
L 362.456086 481.793224 
L 361.250701 475.256154 
L 359.904216 468.524834 
L 358.399162 461.587367 
L 356.715544 454.430725 
L 354.830458 447.040607 
L 352.717602 439.401264 
L 350.346833 431.495297 
L 347.683535 423.30342 
L 344.68811 414.804176 
L 341.315375 405.973598 
L 337.514075 396.784799 
L 333.226536 387.207484 
L 328.388691 377.207342 
L 322.930613 366.745308 
L 316.777902 355.776638 
L 309.854178 344.249756 
L 302.085059 332.104783 
L 293.403446 319.271659 
L 283.755959 305.667692 
L 273.109378 291.194327 
L 261.45556 275.732809 
L 248.813084 259.138256 
L 235.224509 241.231383 
L 220.749458 221.786668 
L 205.455491 200.514945 
L 189.409634 177.03694 
L 172.674148 150.841457 
L 155.310231 121.216066 
L 137.395744 87.125303 
L 119.07071 46.98 
" clip-path="url(#p472fd73b76)" style="fill: none; stroke-dasharray: 5.55,2.4; stroke-dashoffset: 0; stroke: #0000ff; stroke-opacity: 0.5; stroke-width: 1.5"/>
    <path d="M 402.797031 579.673186 
L 403.028279 575.451031 
L 403.253138 571.148691 
L 403.470594 566.76306 
L 403.679659 562.290851 
L 403.879098 557.728574 
L 404.067601 553.072529 
L 404.243689 548.31878 
L 404.405696 543.463138 
L 404.551745 538.501139 
L 404.679727 533.428019 
L 404.78727 528.238688 
L 404.87169 522.927696 
L 404.929952 517.489201 
L 404.958607 511.91693 
L 404.953743 506.204136 
L 404.910882 500.343548 
L 404.824913 494.327314 
L 404.689987 488.146942 
L 404.499375 481.793224 
L 404.245314 475.256154 
L 403.918839 468.524834 
L 403.509531 461.587367 
L 403.005261 454.430725 
L 402.391871 447.040607 
L 401.652723 439.401264 
L 400.768272 431.495297 
L 399.71536 423.30342 
L 398.466546 414.804176 
L 396.989139 405.973598 
L 395.244081 396.784799 
L 393.184599 387.207484 
L 390.754463 377.207342 
L 387.886138 366.745308 
L 384.498533 355.776638 
L 380.494684 344.249756 
L 375.759581 332.104783 
L 370.158834 319.271659 
L 363.539174 305.667692 
L 355.732515 291.194327 
L 346.565729 275.732809 
L 335.877771 259.138256 
L 323.543816 241.231383 
L 309.501218 221.786668 
L 293.767046 200.514945 
L 276.43601 177.03694 
L 257.656282 150.841457 
L 237.593793 121.216066 
L 216.405975 87.125303 
L 194.249208 46.98 
" clip-path="url(#p472fd73b76)" style="fill: none; stroke-dasharray: 5.55,2.4; stroke-dashoffset: 0; stroke: #0000ff; stroke-opacity: 0.5; stroke-width: 1.5"/>
    <path d="M 434.436134 579.673186 
L 434.953056 575.451031 
L 435.475304 571.148691 
L 436.002648 566.76306 
L 436.534927 562.290851 
L 437.071833 557.728574 
L 437.613058 553.072529 
L 438.158227 548.31878 
L 438.706885 543.463138 
L 439.258492 538.501139 
L 439.812413 533.428019 
L 440.367907 528.238688 
L 440.924101 522.927696 
L 441.479971 517.489201 
L 442.034313 511.91693 
L 442.585724 506.204136 
L 443.132542 500.343548 
L 443.672824 494.327314 
L 444.20429 488.146942 
L 444.724253 481.793224 
L 445.229543 475.256154 
L 445.716419 468.524834 
L 446.180442 461.587367 
L 446.616339 454.430725 
L 447.017837 447.040607 
L 447.377411 439.401264 
L 447.686057 431.495297 
L 447.932878 423.30342 
L 448.104691 414.804176 
L 448.185433 405.973598 
L 448.155426 396.784799 
L 447.990452 387.207484 
L 447.66042 377.207342 
L 447.127788 366.745308 
L 446.345321 355.776638 
L 445.253188 344.249756 
L 443.774953 332.104783 
L 441.812366 319.271659 
L 439.238333 305.667692 
L 435.887829 291.194327 
L 431.546578 275.732809 
L 425.938495 259.138256 
L 418.715053 241.231383 
L 409.455032 221.786668 
L 397.690737 200.514945 
L 382.982216 177.03694 
L 365.043726 150.841457 
L 343.870663 121.216066 
L 319.759876 87.125303 
L 293.177511 46.98 
" clip-path="url(#p472fd73b76)" style="fill: none; stroke-dasharray: 5.55,2.4; stroke-dashoffset: 0; stroke: #0000ff; stroke-opacity: 0.5; stroke-width: 1.5"/>
    <path d="M 466.221395 579.673186 
L 466.969623 575.451031 
L 467.732015 571.148691 
L 468.508901 566.76306 
L 469.300708 562.290851 
L 470.107789 557.728574 
L 470.930547 553.072529 
L 471.769383 548.31878 
L 472.624695 543.463138 
L 473.496881 538.501139 
L 474.386336 533.428019 
L 475.293457 528.238688 
L 476.218626 522.927696 
L 477.162212 517.489201 
L 478.12456 511.91693 
L 479.105993 506.204136 
L 480.106783 500.343548 
L 481.127152 494.327314 
L 482.167262 488.146942 
L 483.227181 481.793224 
L 484.306865 475.256154 
L 485.406133 468.524834 
L 486.524616 461.587367 
L 487.661717 454.430725 
L 488.816554 447.040607 
L 489.987865 439.401264 
L 491.173934 431.495297 
L 492.372424 423.30342 
L 493.580241 414.804176 
L 494.7933 405.973598 
L 496.006232 396.784799 
L 497.212023 387.207484 
L 498.401445 377.207342 
L 499.5624 366.745308 
L 500.678932 355.776638 
L 501.729906 344.249756 
L 502.687074 332.104783 
L 503.512412 319.271659 
L 504.154167 305.667692 
L 504.541066 291.194327 
L 504.573537 275.732809 
L 504.110359 259.138256 
L 502.947864 241.231383 
L 500.787292 221.786668 
L 497.184068 200.514945 
L 491.471951 177.03694 
L 482.666121 150.841457 
L 469.398832 121.216066 
L 450.080915 87.125303 
L 423.592869 46.98 
" clip-path="url(#p472fd73b76)" style="fill: none; stroke-dasharray: 5.55,2.4; stroke-dashoffset: 0; stroke: #0000ff; stroke-opacity: 0.5; stroke-width: 1.5"/>
    <path d="M 498.139393 579.673186 
L 499.069376 575.451031 
L 500.019965 571.148691 
L 500.991873 566.76306 
L 501.985932 562.290851 
L 503.002943 557.728574 
L 504.04379 553.072529 
L 505.109398 548.31878 
L 506.200738 543.463138 
L 507.318835 538.501139 
L 508.464769 533.428019 
L 509.639688 528.238688 
L 510.844802 522.927696 
L 512.081393 517.489201 
L 513.350815 511.91693 
L 514.654508 506.204136 
L 515.993989 500.343548 
L 517.370871 494.327314 
L 518.786867 488.146942 
L 520.243788 481.793224 
L 521.743557 475.256154 
L 523.288215 468.524834 
L 524.879921 461.587367 
L 526.520959 454.430725 
L 528.213751 447.040607 
L 529.960842 439.401264 
L 531.764919 431.495297 
L 533.628784 423.30342 
L 535.555362 414.804176 
L 537.547669 405.973598 
L 539.608779 396.784799 
L 541.741783 387.207484 
L 543.949673 377.207342 
L 546.235244 366.745308 
L 548.600888 355.776638 
L 551.048311 344.249756 
L 553.578074 332.104783 
L 556.188946 319.271659 
L 558.876865 305.667692 
L 561.633349 291.194327 
L 564.442934 275.732809 
L 567.27908 259.138256 
L 570.09733 241.231383 
L 572.823577 221.786668 
L 575.333328 200.514945 
L 577.41317 177.03694 
L 578.686318 150.841457 
L 578.460549 121.216066 
L 575.404905 87.125303 
L 566.868505 46.98 
" clip-path="url(#p472fd73b76)" style="fill: none; stroke-dasharray: 5.55,2.4; stroke-dashoffset: 0; stroke: #0000ff; stroke-opacity: 0.5; stroke-width: 1.5"/>
    <path d="M 530.17346 579.673186 
L 531.241698 575.451031 
L 532.3351 571.148691 
L 533.454635 566.76306 
L 534.601404 562.290851 
L 535.776501 557.728574 
L 536.98113 553.072529 
L 538.216557 548.31878 
L 539.484128 543.463138 
L 540.785272 538.501139 
L 542.121516 533.428019 
L 543.494487 528.238688 
L 544.905926 522.927696 
L 546.357694 517.489201 
L 547.851786 511.91693 
L 549.390342 506.204136 
L 550.975658 500.343548 
L 552.61021 494.327314 
L 554.296666 488.146942 
L 556.037908 481.793224 
L 557.837056 475.256154 
L 559.69749 468.524834 
L 561.622885 461.587367 
L 563.617238 454.430725 
L 565.684915 447.040607 
L 567.830685 439.401264 
L 570.059784 431.495297 
L 572.377958 423.30342 
L 574.791541 414.804176 
L 577.307533 405.973598 
L 579.933688 396.784799 
L 582.678631 387.207484 
L 585.551965 377.207342 
L 588.564434 366.745308 
L 591.728087 355.776638 
L 595.056484 344.249756 
L 598.564916 332.104783 
L 602.270684 319.271659 
L 606.193392 305.667692 
L 610.355278 291.194327 
L 614.78152 275.732809 
L 619.500503 259.138256 
L 624.543869 241.231383 
L 629.946032 221.786668 
L 635.742546 200.514945 
L 641.965632 177.03694 
L 648.633338 150.841457 
L 649 149.309235 
" clip-path="url(#p472fd73b76)" style="fill: none; stroke-dasharray: 5.55,2.4; stroke-dashoffset: 0; stroke: #0000ff; stroke-opacity: 0.5; stroke-width: 1.5"/>
    <path d="M 562.306416 579.673186 
L 563.475707 575.451031 
L 564.67329 571.148691 
L 565.9003 566.76306 
L 567.158009 562.290851 
L 568.447706 557.728574 
L 569.770793 553.072529 
L 571.12876 548.31878 
L 572.52319 543.463138 
L 573.95577 538.501139 
L 575.428306 533.428019 
L 576.94273 528.238688 
L 578.501115 522.927696 
L 580.105683 517.489201 
L 581.758825 511.91693 
L 583.463116 506.204136 
L 585.221329 500.343548 
L 587.036467 494.327314 
L 588.91178 488.146942 
L 590.850795 481.793224 
L 592.857347 475.256154 
L 594.935621 468.524834 
L 597.090182 461.587367 
L 599.326037 454.430725 
L 601.648685 447.040607 
L 604.064182 439.401264 
L 606.579224 431.495297 
L 609.201228 423.30342 
L 611.938451 414.804176 
L 614.800108 405.973598 
L 617.796535 396.784799 
L 620.939371 387.207484 
L 624.241775 377.207342 
L 627.718712 366.745308 
L 631.387287 355.776638 
L 635.26717 344.249756 
L 639.381119 332.104783 
L 643.755663 319.271659 
L 648.421959 305.667692 
L 649 303.992765 
" clip-path="url(#p472fd73b76)" style="fill: none; stroke-dasharray: 5.55,2.4; stroke-dashoffset: 0; stroke: #0000ff; stroke-opacity: 0.5; stroke-width: 1.5"/>
   </g>
   <g id="LineCollection_3">
    <path d="M 143.731801 452.894818 
L 141.30568 456.33608 
L 138.91734 459.72585 
L 136.565647 463.065645 
L 134.249519 466.356919 
L 131.967921 469.601061 
L 129.719861 472.799402 
L 127.50439 475.953217 
L 125.320598 479.063728 
L 123.167612 482.13211 
L 121.044595 485.159487 
L 118.950743 488.146942 
L 116.885284 491.095514 
L 114.847476 494.006201 
L 112.836606 496.879965 
L 110.851987 499.717731 
L 108.892958 502.52039 
L 106.958883 505.2888 
L 105.04915 508.023787 
L 103.163168 510.72615 
L 101.300366 513.396657 
L 99.460196 516.03605 
L 97.642126 518.645047 
L 95.845646 521.224339 
L 94.070261 523.774595 
L 92.315492 526.296462 
L 90.580877 528.790565 
L 88.865971 531.257508 
L 87.170341 533.697877 
L 85.493569 536.112237 
L 83.835249 538.501139 
L 82.194991 540.865112 
L 80.572415 543.204672 
L 78.967152 545.520318 
L 77.378846 547.812533 
L 75.807151 550.081788 
L 74.251733 552.328537 
L 72.712265 554.553223 
L 71.188431 556.756275 
L 69.679926 558.938109 
L 68.186451 561.099131 
L 66.707717 563.239733 
L 65.243444 565.360298 
L 63.793358 567.461198 
L 62.357193 569.542793 
L 60.934693 571.605436 
L 59.525604 573.649468 
L 58.129685 575.675223 
L 56.746696 577.683023 
L 55.376406 579.673186 
" clip-path="url(#p472fd73b76)" style="fill: none; stroke-dasharray: 5.55,2.4; stroke-dashoffset: 0; stroke: #008000; stroke-opacity: 0.8; stroke-width: 1.5"/>
    <path d="M 207.723122 452.894818 
L 205.394487 456.33608 
L 203.102391 459.72585 
L 200.845736 463.065645 
L 198.623473 466.356919 
L 196.434596 469.601061 
L 194.278145 472.799402 
L 192.153199 475.953217 
L 190.058875 479.063728 
L 187.994328 482.13211 
L 185.958745 485.159487 
L 183.951348 488.146942 
L 181.971389 491.095514 
L 180.018148 494.006201 
L 178.090933 496.879965 
L 176.18908 499.717731 
L 174.311947 502.52039 
L 172.45892 505.2888 
L 170.629404 508.023787 
L 168.822825 510.72615 
L 167.038634 513.396657 
L 165.276297 516.03605 
L 163.535301 518.645047 
L 161.815149 521.224339 
L 160.115364 523.774595 
L 158.435481 526.296462 
L 156.775053 528.790565 
L 155.133649 531.257508 
L 153.51085 533.697877 
L 151.90625 536.112237 
L 150.319459 538.501139 
L 148.750096 540.865112 
L 147.197795 543.204672 
L 145.662198 545.520318 
L 144.142961 547.812533 
L 142.63975 550.081788 
L 141.152238 552.328537 
L 139.680113 554.553223 
L 138.223068 556.756275 
L 136.780806 558.938109 
L 135.353039 561.099131 
L 133.939488 563.239733 
L 132.539881 565.360298 
L 131.153954 567.461198 
L 129.781449 569.542793 
L 128.422118 571.605436 
L 127.075716 573.649468 
L 125.742009 575.675223 
L 124.420766 577.683023 
L 123.111764 579.673186 
" clip-path="url(#p472fd73b76)" style="fill: none; stroke-dasharray: 5.55,2.4; stroke-dashoffset: 0; stroke: #008000; stroke-opacity: 0.8; stroke-width: 1.5"/>
    <path d="M 260.196006 452.894818 
L 257.950646 456.33608 
L 255.740773 459.72585 
L 253.565319 463.065645 
L 251.42326 466.356919 
L 249.313618 469.601061 
L 247.235458 472.799402 
L 245.187883 475.953217 
L 243.170035 479.063728 
L 241.18109 482.13211 
L 239.220257 485.159487 
L 237.286779 488.146942 
L 235.379928 491.095514 
L 233.499002 494.006201 
L 231.64333 496.879965 
L 229.812265 499.717731 
L 228.005182 502.52039 
L 226.221483 505.2888 
L 224.46059 508.023787 
L 222.721946 510.72615 
L 221.005015 513.396657 
L 219.309278 516.03605 
L 217.634235 518.645047 
L 215.979406 521.224339 
L 214.344323 523.774595 
L 212.728537 526.296462 
L 211.131613 528.790565 
L 209.55313 531.257508 
L 207.992682 533.697877 
L 206.449874 536.112237 
L 204.924327 538.501139 
L 203.41567 540.865112 
L 201.923548 543.204672 
L 200.447613 545.520318 
L 198.987531 547.812533 
L 197.542976 550.081788 
L 196.113632 552.328537 
L 194.699194 554.553223 
L 193.299365 556.756275 
L 191.913856 558.938109 
L 190.542388 561.099131 
L 189.184688 563.239733 
L 187.840493 565.360298 
L 186.509546 567.461198 
L 185.191597 569.542793 
L 183.886405 571.605436 
L 182.593732 573.649468 
L 181.313351 575.675223 
L 180.045037 577.683023 
L 178.788572 579.673186 
" clip-path="url(#p472fd73b76)" style="fill: none; stroke-dasharray: 5.55,2.4; stroke-dashoffset: 0; stroke: #008000; stroke-opacity: 0.8; stroke-width: 1.5"/>
    <path d="M 316.535538 452.894818 
L 314.382938 456.33608 
L 312.264662 459.72585 
L 310.179672 463.065645 
L 308.126975 466.356919 
L 306.105623 469.601061 
L 304.114709 472.799402 
L 302.153362 475.953217 
L 300.22075 479.063728 
L 298.316074 482.13211 
L 296.438568 485.159487 
L 294.587497 488.146942 
L 292.762154 491.095514 
L 290.961861 494.006201 
L 289.185965 496.879965 
L 287.433839 499.717731 
L 285.70488 502.52039 
L 283.998505 505.2888 
L 282.314156 508.023787 
L 280.651292 510.72615 
L 279.009393 513.396657 
L 277.387958 516.03605 
L 275.786503 518.645047 
L 274.20456 521.224339 
L 272.641678 523.774595 
L 271.097422 526.296462 
L 269.571369 528.790565 
L 268.063113 531.257508 
L 266.57226 533.697877 
L 265.098428 536.112237 
L 263.641249 538.501139 
L 262.200365 540.865112 
L 260.775431 543.204672 
L 259.366111 545.520318 
L 257.972081 547.812533 
L 256.593026 550.081788 
L 255.228641 552.328537 
L 253.878629 554.553223 
L 252.542703 556.756275 
L 251.220584 558.938109 
L 249.912001 561.099131 
L 248.616692 563.239733 
L 247.3344 565.360298 
L 246.064877 567.461198 
L 244.807883 569.542793 
L 243.563182 571.605436 
L 242.330546 573.649468 
L 241.109753 575.675223 
L 239.900588 577.683023 
L 238.70284 579.673186 
" clip-path="url(#p472fd73b76)" style="fill: none; stroke-dasharray: 5.55,2.4; stroke-dashoffset: 0; stroke: #008000; stroke-opacity: 0.8; stroke-width: 1.5"/>
    <path d="M 365.049831 452.894818 
L 362.979886 456.33608 
L 360.943235 459.72585 
L 358.938867 463.065645 
L 356.965817 466.356919 
L 355.023164 469.601061 
L 353.110022 472.799402 
L 351.225548 475.953217 
L 349.36893 479.063728 
L 347.539392 482.13211 
L 345.736189 485.159487 
L 343.958606 488.146942 
L 342.205955 491.095514 
L 340.477578 494.006201 
L 338.772841 496.879965 
L 337.091132 499.717731 
L 335.431867 502.52039 
L 333.794478 505.2888 
L 332.178423 508.023787 
L 330.583177 510.72615 
L 329.008234 513.396657 
L 327.453108 516.03605 
L 325.917327 518.645047 
L 324.400438 521.224339 
L 322.902002 523.774595 
L 321.421596 526.296462 
L 319.958811 528.790565 
L 318.513251 531.257508 
L 317.084533 533.697877 
L 315.672288 536.112237 
L 314.276157 538.501139 
L 312.895793 540.865112 
L 311.530861 543.204672 
L 310.181035 545.520318 
L 308.846 547.812533 
L 307.52545 550.081788 
L 306.219089 552.328537 
L 304.926629 554.553223 
L 303.647792 556.756275 
L 302.382306 558.938109 
L 301.129909 561.099131 
L 299.890346 563.239733 
L 298.663369 565.360298 
L 297.448736 567.461198 
L 296.246213 569.542793 
L 295.055574 571.605436 
L 293.876596 573.649468 
L 292.709065 575.675223 
L 291.55277 577.683023 
L 290.407508 579.673186 
" clip-path="url(#p472fd73b76)" style="fill: none; stroke-dasharray: 5.55,2.4; stroke-dashoffset: 0; stroke: #008000; stroke-opacity: 0.8; stroke-width: 1.5"/>
    <path d="M 397.440549 452.894818 
L 395.42722 456.33608 
L 393.446482 459.72585 
L 391.497346 463.065645 
L 389.578863 466.356919 
L 387.690129 469.601061 
L 385.830277 472.799402 
L 383.998478 475.953217 
L 382.193937 479.063728 
L 380.415892 482.13211 
L 378.663613 485.159487 
L 376.936398 488.146942 
L 375.233574 491.095514 
L 373.554494 494.006201 
L 371.898536 496.879965 
L 370.265103 499.717731 
L 368.653618 502.52039 
L 367.063529 505.2888 
L 365.494301 508.023787 
L 363.94542 510.72615 
L 362.416392 513.396657 
L 360.906737 516.03605 
L 359.415997 518.645047 
L 357.943724 521.224339 
L 356.489491 523.774595 
L 355.052881 526.296462 
L 353.633494 528.790565 
L 352.230942 531.257508 
L 350.844851 533.697877 
L 349.474857 536.112237 
L 348.12061 538.501139 
L 346.78177 540.865112 
L 345.458008 543.204672 
L 344.149006 545.520318 
L 342.854453 547.812533 
L 341.574052 550.081788 
L 340.307512 552.328537 
L 339.05455 554.553223 
L 337.814895 556.756275 
L 336.58828 558.938109 
L 335.374449 561.099131 
L 334.173152 563.239733 
L 332.984145 565.360298 
L 331.807193 567.461198 
L 330.642067 569.542793 
L 329.488543 571.605436 
L 328.346405 573.649468 
L 327.215443 575.675223 
L 326.095451 577.683023 
L 324.986229 579.673186 
" clip-path="url(#p472fd73b76)" style="fill: none; stroke-dasharray: 5.55,2.4; stroke-dashoffset: 0; stroke: #008000; stroke-opacity: 0.8; stroke-width: 1.5"/>
    <path d="M 441.884191 452.894818 
L 439.950411 456.33608 
L 438.048241 459.72585 
L 436.176717 463.065645 
L 434.334918 466.356919 
L 432.521963 469.601061 
L 430.737009 472.799402 
L 428.979248 475.953217 
L 427.247909 479.063728 
L 425.54225 482.13211 
L 423.86156 485.159487 
L 422.205157 488.146942 
L 420.572387 491.095514 
L 418.962621 494.006201 
L 417.375253 496.879965 
L 415.809704 499.717731 
L 414.265412 502.52039 
L 412.741841 505.2888 
L 411.238471 508.023787 
L 409.754803 510.72615 
L 408.290356 513.396657 
L 406.844664 516.03605 
L 405.417281 518.645047 
L 404.007774 521.224339 
L 402.615726 523.774595 
L 401.240733 526.296462 
L 399.882406 528.790565 
L 398.540369 531.257508 
L 397.214257 533.697877 
L 395.903718 536.112237 
L 394.608412 538.501139 
L 393.328008 540.865112 
L 392.062187 543.204672 
L 390.81064 545.520318 
L 389.573066 547.812533 
L 388.349176 550.081788 
L 387.138687 552.328537 
L 385.941326 554.553223 
L 384.756829 556.756275 
L 383.584936 558.938109 
L 382.4254 561.099131 
L 381.277977 563.239733 
L 380.142432 565.360298 
L 379.018535 567.461198 
L 377.906065 569.542793 
L 376.804805 571.605436 
L 375.714545 573.649468 
L 374.635081 575.675223 
L 373.566213 577.683023 
L 372.507749 579.673186 
" clip-path="url(#p472fd73b76)" style="fill: none; stroke-dasharray: 5.55,2.4; stroke-dashoffset: 0; stroke: #008000; stroke-opacity: 0.8; stroke-width: 1.5"/>
    <path d="M 481.785872 452.894818 
L 479.92535 456.33608 
L 478.095539 459.72585 
L 476.2955 463.065645 
L 474.524334 466.356919 
L 472.781184 469.601061 
L 471.065227 472.799402 
L 469.375677 475.953217 
L 467.711782 479.063728 
L 466.072819 482.13211 
L 464.458095 485.159487 
L 462.866947 488.146942 
L 461.298737 491.095514 
L 459.752851 494.006201 
L 458.228702 496.879965 
L 456.725723 499.717731 
L 455.24337 502.52039 
L 453.781117 505.2888 
L 452.338462 508.023787 
L 450.914916 510.72615 
L 449.510012 513.396657 
L 448.123297 516.03605 
L 446.754336 518.645047 
L 445.402708 521.224339 
L 444.068006 523.774595 
L 442.749839 526.296462 
L 441.447827 528.790565 
L 440.161604 531.257508 
L 438.890816 533.697877 
L 437.635121 536.112237 
L 436.394186 538.501139 
L 435.16769 540.865112 
L 433.955324 543.204672 
L 432.756786 545.520318 
L 431.571785 547.812533 
L 430.400038 550.081788 
L 429.24127 552.328537 
L 428.095217 554.553223 
L 426.961621 556.756275 
L 425.84023 558.938109 
L 424.730803 561.099131 
L 423.633104 563.239733 
L 422.546904 565.360298 
L 421.47198 567.461198 
L 420.408116 569.542793 
L 419.355103 571.605436 
L 418.312735 573.649468 
L 417.280814 575.675223 
L 416.259147 577.683023 
L 415.247546 579.673186 
" clip-path="url(#p472fd73b76)" style="fill: none; stroke-dasharray: 5.55,2.4; stroke-dashoffset: 0; stroke: #008000; stroke-opacity: 0.8; stroke-width: 1.5"/>
    <path d="M 510.905226 452.894818 
L 509.099264 456.33608 
L 507.323347 459.72585 
L 505.576553 463.065645 
L 503.858001 466.356919 
L 502.166851 469.601061 
L 500.502295 472.799402 
L 498.863563 475.953217 
L 497.249916 479.063728 
L 495.660647 482.13211 
L 494.095077 485.159487 
L 492.552554 488.146942 
L 491.032453 491.095514 
L 489.534174 494.006201 
L 488.05714 496.879965 
L 486.600795 499.717731 
L 485.164606 502.52039 
L 483.74806 505.2888 
L 482.350661 508.023787 
L 480.971933 510.72615 
L 479.611417 513.396657 
L 478.26867 516.03605 
L 476.943265 518.645047 
L 475.63479 521.224339 
L 474.342847 523.774595 
L 473.067051 526.296462 
L 471.807032 528.790565 
L 470.562431 531.257508 
L 469.3329 533.697877 
L 468.118105 536.112237 
L 466.91772 538.501139 
L 465.731431 540.865112 
L 464.558935 543.204672 
L 463.399936 545.520318 
L 462.254149 547.812533 
L 461.121298 550.081788 
L 460.001114 552.328537 
L 458.893336 554.553223 
L 457.797714 556.756275 
L 456.714001 558.938109 
L 455.641961 561.099131 
L 454.581362 563.239733 
L 453.53198 565.360298 
L 452.493598 567.461198 
L 451.466005 569.542793 
L 450.448993 571.605436 
L 449.442365 573.649468 
L 448.445925 575.675223 
L 447.459485 577.683023 
L 446.482859 579.673186 
" clip-path="url(#p472fd73b76)" style="fill: none; stroke-dasharray: 5.55,2.4; stroke-dashoffset: 0; stroke: #008000; stroke-opacity: 0.8; stroke-width: 1.5"/>
   </g>
   <g id="line2d_42">
    <path d="M 282.343358 559.914082 
L 287.341434 559.15948 
L 297.118688 558.022844 
L 304.327175 557.166608 
L 325.317125 554.409527 
L 328.219067 553.708933 
L 332.555198 552.349899 
L 336.207518 550.958173 
L 336.672227 550.958173 
L 339.583321 549.557845 
L 342.654553 547.975162 
L 345.251845 546.381344 
L 348.448914 544.448801 
L 351.268692 541.914143 
L 354.668083 539.531186 
L 359.23857 536.810276 
L 361.179332 535.319411 
L 363.928662 532.733007 
L 364.592974 531.802088 
L 364.840854 530.867329 
L 365.040928 528.986158 
L 364.815647 527.415553 
L 364.999389 525.833983 
L 365.484462 521.385001 
L 365.517168 518.067861 
L 365.284252 517.95456 
L 365.17646 516.960751 
L 364.964681 516.333833 
L 364.477261 515.447493 
L 362.88667 512.796461 
L 362.579156 512.157896 
L 361.775845 510.641366 
L 361.270775 509.291305 
L 361.006361 508.583719 
L 359.644076 505.850644 
L 359.292664 504.682033 
L 358.034895 502.690545 
L 356.999805 501.383578 
L 355.71352 500.222274 
L 355.111845 499.577938 
L 354.379197 498.407318 
L 350.501345 494.733192 
L 349.793296 494.10451 
L 346.82144 491.731291 
L 346.134748 491.094212 
L 345.498507 490.423344 
L 344.46933 489.589985 
L 344.200068 488.850218 
L 344.208946 488.043374 
L 344.085458 487.816942 
L 343.860422 487.71983 
L 343.900637 487.103821 
L 344.201356 486.06253 
L 344.67289 484.75415 
L 345.674513 482.843475 
L 346.78496 480.916549 
L 348.16069 478.905778 
L 348.236244 478.434019 
L 346.527545 473.696043 
L 346.133387 472.625721 
L 345.65853 471.654613 
L 345.421616 470.958406 
L 345.183568 470.329986 
L 345.040653 469.27873 
L 344.892819 468.434198 
L 344.819465 466.948649 
L 344.856264 466.09537 
L 344.956682 464.845215 
L 345.035691 462.86664 
L 344.770873 462.396441 
L 344.616089 461.016391 
L 344.406657 460.103857 
L 343.969575 459.407865 
L 343.554571 457.603006 
L 342.914393 456.787961 
L 342.281883 456.118917 
L 342.226845 455.485224 
L 342.256555 453.874394 
L 342.651443 452.781517 
L 343.870853 450.808576 
L 344.420377 449.509223 
L 344.718626 447.46878 
L 344.871579 446.810386 
L 344.967206 446.150074 
L 344.810182 445.253635 
L 344.521008 444.667084 
L 344.310822 443.921933 
L 344.12727 443.60745 
L 343.334272 442.819328 
L 342.573695 441.830305 
L 342.172431 440.478266 
L 341.818094 439.679163 
L 341.025599 438.716504 
L 340.63236 438.515434 
L 339.443672 437.386134 
L 339.033842 436.616603 
L 338.010109 435.844451 
L 337.306763 435.396209 
L 336.57851 434.497056 
L 335.86639 433.100398 
L 335.619947 432.811779 
L 335.289414 432.605397 
L 333.657992 430.572842 
L 333.05651 429.654301 
L 332.84933 428.858007 
L 332.030852 427.299251 
L 331.115915 425.899902 
L 330.756801 425.346262 
L 329.948701 421.475802 
L 329.222434 419.952583 
L 329.224442 419.51549 
L 328.920052 418.946005 
L 328.506953 418.463012 
L 327.675847 416.520678 
L 327.41982 415.854694 
L 327.071028 415.27592 
L 326.930628 414.472092 
L 326.535395 413.889771 
L 326.006801 413.44081 
L 325.018311 411.907655 
L 324.820556 411.590713 
L 324.296601 411.590713 
L 322.336283 409.679694 
L 321.035401 408.488553 
L 319.10459 405.99445 
L 317.890076 405.250153 
L 317.18396 404.643605 
L 316.895218 404.269537 
L 316.611468 403.190635 
L 316.297362 402.814158 
L 314.977724 402.012059 
L 314.076349 401.491537 
L 313.24773 400.922327 
L 312.581945 400.208798 
L 311.153875 398.870834 
L 310.685135 397.958408 
L 309.663033 395.63683 
L 309.393178 395.247576 
L 308.203777 394.467057 
L 306.339072 393.045476 
L 305.920414 392.799472 
L 304.673968 391.416889 
L 304.494385 390.970689 
L 304.229215 390.623037 
L 303.304146 389.876265 
L 302.89801 389.327064 
L 302.773347 388.576001 
L 302.877689 387.268231 
L 302.831166 386.914846 
L 302.965526 385.597423 
L 302.645107 384.42559 
L 302.751056 383.247664 
L 302.52435 382.42461 
L 302.549141 381.75367 
L 302.811548 380.613686 
L 303.123789 379.520143 
L 303.103443 379.04986 
L 303.074492 378.00128 
L 302.618411 376.683692 
L 301.711502 374.506121 
L 301.70554 373.275329 
L 300.004239 370.522093 
L 299.412312 369.651391 
L 299.215211 368.832058 
L 297.671387 367.239562 
L 295.075302 364.746069 
L 292.566214 362.224826 
L 291.954993 361.321579 
L 291.003271 359.846078 
L 290.31362 358.647271 
L 287.511715 353.612079 
L 287.302884 352.967402 
L 286.813382 352.144241 
L 284.940119 349.179721 
L 284.204674 348.402549 
L 283.694522 347.862941 
L 282.913626 347.081231 
L 282.223661 346.236362 
L 281.74462 345.691563 
L 281.076526 344.841485 
L 280.33947 344.049261 
L 280.1895 343.682683 
L 279.709236 343.131701 
L 278.613473 341.65583 
L 277.852478 340.852367 
L 276.843531 339.672926 
L 276.302765 339.112092 
L 275.520912 338.236916 
L 274.981865 337.672512 
L 273.843166 336.034068 
L 273.794267 335.527539 
L 273.619481 335.146897 
L 272.791228 334.319972 
L 272.282403 333.745712 
L 271.472937 332.977761 
L 270.626163 331.756489 
L 270.16276 331.175686 
L 269.70085 330.59339 
L 269.028276 329.749644 
L 268.431538 328.837467 
L 268.012706 328.249122 
L 267.597258 327.659245 
L 267.192606 327.067829 
L 266.791353 326.474864 
L 266.424983 325.880343 
L 265.897928 325.018826 
L 265.215092 323.887262 
L 264.773769 322.951123 
L 264.24869 322.078373 
L 263.962488 321.472186 
L 263.729753 320.864373 
L 263.365207 320.05141 
L 263.083861 318.48503 
L 262.382524 316.218527 
L 262.234423 315.596434 
L 261.559065 313.859381 
L 261.310167 312.880782 
L 260.006783 310.273949 
L 257.594057 306.702857 
L 257.243104 306.054039 
L 254.042131 301.901138 
L 253.716657 301.680441 
L 253.315469 301.017057 
L 251.9855 299.238478 
L 251.483546 298.194488 
L 250.251316 296.31817 
L 250.102646 295.941034 
L 249.650492 295.865531 
L 249.122549 295.336308 
L 248.523862 294.350172 
L 248.001328 293.817392 
L 247.340172 292.901131 
L 247.011523 292.211494 
L 246.613569 291.596717 
L 246.1901 290.516825 
L 245.216542 288.887275 
L 243.749262 286.38139 
L 242.567355 283.927091 
L 242.327485 283.289384 
L 242.124597 283.04978 
L 241.345668 281.123772 
L 241.128421 280.881865 
L 239.033346 276.071111 
L 238.797488 275.823746 
L 237.811051 273.918252 
L 236.959486 272.248171 
L 236.707475 271.996594 
L 234.151704 266.733782 
L 233.455263 264.403137 
L 233.304693 264.14269 
L 232.391953 258.780939 
L 232.250795 257.442805 
L 232.13983 257.174227 
L 231.992004 256.546305 
L 231.953543 256.186709 
L 231.749218 255.556039 
L 231.45894 254.561426 
L 231.023854 254.561426 
L 230.864979 253.835319 
L 230.691676 253.562427 
L 230.604295 253.19806 
L 230.415098 252.924399 
L 230.081904 251.826439 
L 229.870302 251.551115 
L 229.749144 251.183496 
L 229.316734 250.630946 
L 229.19152 250.261829 
L 228.970718 249.984596 
L 228.713748 249.243646 
L 228.492345 248.965164 
L 228.214654 248.220866 
L 227.981552 247.941123 
L 227.842235 247.567594 
L 227.611792 247.287042 
L 227.473557 246.912432 
L 227.240224 246.631067 
L 227.103076 246.25537 
L 226.874264 245.973188 
L 226.741912 245.596397 
L 226.515774 245.313392 
L 226.38267 244.935502 
L 226.153656 244.651669 
L 226.017956 244.272672 
L 225.782369 243.988008 
L 225.499022 243.22715 
L 225.26105 242.941168 
L 225.117116 242.559296 
L 224.879988 242.272469 
L 224.740887 241.889467 
L 224.508312 241.601791 
L 224.372199 241.217653 
L 224.14233 240.929121 
L 224.009212 240.54384 
L 223.782055 240.254448 
L 223.653789 239.868017 
L 223.4312 239.57776 
L 223.311497 239.190171 
L 223.10459 238.899044 
L 222.999011 238.510292 
L 222.605839 237.92591 
L 222.514895 237.535483 
L 222.330489 237.24222 
L 222.249983 236.850612 
L 221.726499 235.96701 
L 221.65376 235.573189 
L 221.483015 235.277373 
L 221.411478 234.882351 
L 221.062929 234.288523 
L 220.985715 233.89177 
L 220.624961 233.295337 
L 220.542086 232.89684 
L 219.993458 231.997651 
L 219.739966 231.295806 
L 219.40646 230.692489 
L 219.181098 229.986582 
L 218.880716 229.379764 
L 218.709451 228.669749 
L 218.482966 228.059388 
L 218.404727 227.345216 
L 218.233665 226.731272 
L 218.152226 226.012894 
L 217.441076 223.428502 
L 217.345879 223.116384 
L 217.25935 222.386433 
L 216.93137 221.12959 
L 216.903122 220.393198 
L 216.72407 219.442878 
L 216.758728 218.700975 
L 216.740472 218.382271 
L 216.829149 217.956633 
L 216.701605 217.743515 
L 216.752967 216.996016 
L 216.499772 215.708822 
L 216.019597 214.089478 
L 215.93687 213.329804 
L 215.831844 213.003448 
L 215.726854 212.240117 
L 215.625253 211.912187 
L 215.598373 210.265375 
L 215.43843 209.603284 
L 215.411655 208.828391 
L 215.361319 208.495481 
L 215.386486 207.716782 
L 215.027622 206.039075 
L 214.764346 204.687906 
L 214.634605 202.64592 
L 214.697107 200.930093 
L 215.140027 196.289984 
L 215.107129 194.525145 
L 215.235609 193.696825 
L 215.326306 192.508231 
L 215.52459 191.193536 
L 215.504354 190.112171 
L 216.180646 188.176908 
L 217.289398 186.714534 
L 218.241813 185.734347 
L 219.658805 184.626543 
L 221.440418 183.513296 
L 225.696448 181.895552 
L 230.845319 180.14035 
L 232.769636 179.510181 
L 240.366061 176.588614 
L 244.034825 174.791644 
L 248.285729 172.590271 
L 250.773934 170.761175 
L 251.223564 169.972733 
L 251.342084 169.313596 
L 251.614556 168.38757 
L 252.114613 167.191375 
L 253.140212 164.375445 
L 253.950346 162.478523 
L 254.030351 161.250632 
L 253.902362 160.976861 
L 253.903631 160.153558 
L 253.76216 159.878457 
L 253.682272 159.051145 
L 253.466559 158.220801 
L 253.481201 157.665542 
L 253.095165 156.411212 
L 252.821274 156.131526 
L 252.58858 155.290391 
L 252.351254 155.009318 
L 252.258822 154.587052 
L 252.024222 154.305104 
L 251.929403 153.881523 
L 251.690128 153.598694 
L 251.589228 153.173789 
L 251.339731 152.890075 
L 251.232757 152.463837 
L 250.987853 152.179233 
L 250.597089 150.607483 
L 250.430437 150.320535 
L 250.413495 149.88943 
L 250.255161 149.601571 
L 250.245214 148.735791 
L 250.099459 148.446461 
L 250.071859 146.848507 
L 249.989622 146.556755 
L 250.055818 146.118422 
L 249.980078 145.825727 
L 250.504475 143.618382 
L 250.639345 143.322438 
L 251.312399 142.580881 
L 252.360025 141.836889 
L 258.708053 138.836244 
L 259.229419 138.685164 
L 262.169541 137.16879 
L 264.990827 135.795321 
L 267.841248 134.259414 
L 272.416148 131.935852 
L 274.691983 130.530188 
L 275.384121 129.745479 
L 276.001799 127.533721 
L 276.027008 127.215986 
L 276.592187 125.780635 
L 277.434972 124.175063 
L 277.643463 123.529634 
L 278.199762 122.39569 
L 278.96624 120.929371 
L 280.279805 118.464218 
L 281.281248 116.972146 
L 283.446555 114.799433 
L 285.271026 113.11382 
L 291.063903 108.326268 
L 293.295208 106.243078 
L 294.557715 104.843565 
L 295.378404 103.611859 
L 296.174088 102.195946 
L 297.204836 100.413518 
L 299.344821 95.529716 
L 300.180322 94.24617 
L 300.236532 94.062211 
L 301.35307 92.214359 
L 302.917597 89.226083 
L 302.887211 89.038001 
L 303.895643 86.768746 
L 304.381356 85.816473 
L 304.524554 85.43444 
L 304.471424 85.243182 
L 304.911744 84.284461 
L 304.826262 84.092229 
L 305.20611 82.160885 
L 305.269026 80.603866 
L 305.294333 79.821325 
L 305.131214 79.625266 
L 305.396859 78.050661 
L 305.842005 76.465035 
L 306.944748 73.864486 
L 307.886132 72.249182 
L 309.557761 70.009165 
L 313.860595 64.834308 
L 314.703778 63.574553 
L 314.751494 63.363911 
L 315.744572 61.883908 
L 319.230563 58.033186 
L 321.291836 56.082999 
L 323.422788 54.335292 
L 324.39271 53.67641 
L 326.704086 52.131526 
L 328.923544 50.798902 
L 329.463006 50.576034 
L 334.559659 47.432638 
L 335.225211 46.98 
L 335.447383 46.98 
L 336.561275 46.299342 
L 342.318133 42.40317 
L 343.349663 41.7086 
L 347.20265 38.673944 
L 349.127568 36.786055 
L 351.201642 35.121147 
L 355.579941 31.026117 
L 356.522722 29.807473 
L 356.981204 29.073127 
L 357.682771 27.843903 
L 357.746127 27.597256 
L 358.457601 26.359976 
L 358.53739 26.111707 
L 359.264432 24.866265 
L 359.334756 24.616353 
L 360.049703 23.36264 
L 360.095772 23.111063 
L 360.719123 21.848968 
L 360.75392 21.595703 
L 361.054412 20.834206 
L 361.609085 19.559327 
L 361.635347 19.303488 
L 362.309773 18.019941 
L 362.384066 17.762357 
L 363.657387 15.69107 
L 363.78248 15.430823 
L 367.259821 10.69451 
L 367.385167 10.428456 
L 369.016223 8.019799 
L 369.74139 6.94101 
L 371.138133 5.040678 
L 372.148014 3.673472 
L 373.431193 2.021858 
L 374.200186 0.914054 
L 375.648803 -1 
L 375.648803 -1 
" clip-path="url(#p472fd73b76)" style="fill: none; stroke: #000000; stroke-width: 2; stroke-linecap: square"/>
   </g>
   <g id="line2d_43">
    <path d="M 273.860112 559.914082 
L 278.271225 558.852204 
L 287.215225 556.856615 
L 293.366599 555.132007 
L 295.653536 554.409527 
L 295.756352 554.07158 
L 295.224942 553.369938 
L 292.810032 550.958173 
L 292.110192 550.958173 
L 290.742635 549.557845 
L 289.30749 547.975162 
L 288.432628 546.65608 
L 287.927181 546.056225 
L 286.446096 543.81779 
L 286.191155 542.804502 
L 285.900128 542.219803 
L 285.401573 540.994679 
L 284.634393 539.840076 
L 283.773463 537.435086 
L 283.686227 536.183739 
L 283.884419 535.00429 
L 284.6348 533.63368 
L 284.723435 533.024793 
L 284.356113 532.733007 
L 284.357614 531.802088 
L 284.461041 529.928696 
L 284.581947 529.309756 
L 285.052393 528.337573 
L 285.717064 527.415553 
L 286.148518 526.789699 
L 286.241492 526.189434 
L 286.220523 525.53278 
L 286.092818 524.929171 
L 285.219452 523.080937 
L 285.214974 522.415197 
L 285.485266 520.434186 
L 285.344747 519.873013 
L 285.57855 519.254113 
L 286.139796 518.322581 
L 286.161236 518.067861 
L 285.852412 517.95456 
L 285.114419 516.333833 
L 285.077572 515.733788 
L 285.393639 514.58643 
L 285.877754 513.404326 
L 285.806161 512.448376 
L 285.30626 511.867043 
L 284.584277 511.313391 
L 283.836218 510.319257 
L 284.214073 508.908304 
L 284.035779 507.903535 
L 284.251537 507.191594 
L 285.006398 506.209008 
L 284.878221 505.431836 
L 284.496802 504.682033 
L 282.939467 502.356921 
L 282.542297 501.078548 
L 282.639764 500.497858 
L 283.25605 499.577938 
L 283.941559 498.777641 
L 284.067494 498.407318 
L 283.829343 497.819731 
L 283.636729 497.199568 
L 283.390274 496.577703 
L 282.803271 495.985346 
L 282.004907 495.391435 
L 281.487494 494.733192 
L 281.392521 493.789513 
L 281.320253 492.271404 
L 281.052636 491.444827 
L 280.89661 490.423344 
L 280.506181 489.878802 
L 279.693276 489.236484 
L 277.686423 488.431017 
L 276.224489 488.043374 
L 274.436567 487.816942 
L 272.386022 487.71983 
L 256.36434 485.441992 
L 253.64718 485.180203 
L 247.914557 484.327294 
L 234.127793 482.843475 
L 223.884261 481.848836 
L 218.801126 481.283262 
L 213.727125 480.582658 
L 205.9671 479.57802 
L 200.886953 478.905778 
L 194.142522 478.231535 
L 191.257707 477.724533 
L 188.16854 476.80906 
L 186.74731 476.230747 
L 185.33292 475.582646 
L 183.895436 474.829889 
L 181.65565 473.31683 
L 179.956565 472.625721 
L 175.443145 471.271964 
L 171.964494 470.679324 
L 162.756402 469.27873 
L 152.965152 468.187282 
L 150.804654 467.728008 
L 150.300438 467.515722 
L 149.01724 466.629046 
L 147.912402 466.09537 
L 147.083901 465.489013 
L 146.466877 464.845215 
L 146.349721 464.199582 
L 146.406624 463.876074 
L 146.658239 463.480047 
L 147.046637 463.11942 
L 148.016196 462.649746 
L 151.685561 461.307628 
L 157.103183 460.103857 
L 176.344651 457.603006 
L 178.636732 457.010537 
L 179.033342 456.787961 
L 179.170971 456.565166 
L 178.955197 456.342151 
L 176.565974 455.820929 
L 172.779291 455.1864 
L 153.829433 452.894818 
L 151.043397 452.781517 
L 141.942756 451.151278 
L 132.736376 449.815624 
L 122.28199 447.97097 
L 117.616843 447.46878 
L 115.606754 447.197908 
L 110.360026 445.87762 
L 109.901609 445.565842 
L 110.28232 445.253635 
L 114.771058 444.275205 
L 120.259099 443.371301 
L 129.89269 441.830305 
L 135.784431 440.478266 
L 138.973728 439.679163 
L 147.474332 437.991816 
L 153.912254 436.332432 
L 157.12922 435.640814 
L 158.26495 435.110502 
L 159.113527 434.497056 
L 159.824448 433.717632 
L 161.142734 431.736534 
L 161.868679 430.864326 
L 162.199938 429.988747 
L 162.219972 429.235548 
L 161.879158 428.858007 
L 160.519031 428.185266 
L 156.228603 426.706643 
L 151.508893 425.346262 
L 149.824776 424.534653 
L 148.219485 423.720126 
L 146.619815 422.988848 
L 143.543169 421.475802 
L 141.72125 420.91123 
L 139.830387 420.345247 
L 137.914476 419.51549 
L 132.194113 417.846801 
L 131.230884 417.22891 
L 130.9406 416.919331 
L 130.42782 415.854694 
L 129.967942 415.27592 
L 129.858138 413.889771 
L 129.779501 413.126007 
L 129.78702 411.907655 
L 129.785516 411.590713 
L 129.474476 411.590713 
L 129.469476 410.773678 
L 129.634413 410.227347 
L 130.009883 409.679694 
L 131.152887 408.488553 
L 132.11286 407.013883 
L 132.484292 405.99445 
L 132.343607 405.250153 
L 132.055995 404.269537 
L 132.107991 402.814158 
L 131.497449 402.012059 
L 131.084852 401.491537 
L 130.80981 400.922327 
L 130.862873 399.875047 
L 131.226492 398.870834 
L 132.167022 397.476704 
L 134.8934 394.467057 
L 136.459157 392.799472 
L 137.897282 391.416889 
L 138.752791 390.374386 
L 138.755474 390.125463 
L 138.082189 389.626793 
L 135.170522 387.621066 
L 132.458719 386.459681 
L 130.599377 385.597423 
L 128.276388 385.037737 
L 127.02974 384.782877 
L 124.900412 384.016571 
L 122.908839 383.247664 
L 118.374088 382.115192 
L 110.745549 379.520143 
L 108.507191 379.04986 
L 105.647708 378.26388 
L 104.249887 377.475164 
L 103.618234 376.947824 
L 103.404382 376.419253 
L 103.502806 375.889446 
L 104.042966 375.145628 
L 104.504737 374.506121 
L 104.869602 373.650626 
L 104.933853 373.006878 
L 105.055139 372.469021 
L 105.481339 371.929884 
L 106.496115 371.118765 
L 107.799608 370.250358 
L 110.901402 368.339032 
L 112.010624 367.51493 
L 112.700553 366.963858 
L 113.804467 366.356128 
L 114.900928 365.857678 
L 117.40215 364.467313 
L 122.73384 362.562617 
L 123.386835 361.942948 
L 123.663838 361.321579 
L 123.680164 360.414716 
L 123.450837 359.846078 
L 122.980403 359.276008 
L 122.177986 358.647271 
L 120.516531 357.78708 
L 118.983639 356.692795 
L 117.331504 355.825136 
L 116.141127 355.302942 
L 112.980553 353.846053 
L 112.270298 353.612079 
L 111.100576 352.967402 
L 109.709428 352.144241 
L 109.473499 351.554432 
L 109.444619 350.963084 
L 109.728326 350.370188 
L 110.256126 349.775736 
L 111.066908 349.179721 
L 112.962342 348.402549 
L 118.728992 345.994391 
L 120.70208 344.841485 
L 122.455518 343.437968 
L 123.565998 342.271945 
L 124.408663 341.408914 
L 126.851042 339.423838 
L 129.409725 336.476355 
L 131.242845 334.574732 
L 131.52023 334.001118 
L 131.692383 332.657011 
L 132.113508 332.078515 
L 133.410004 330.852373 
L 133.565387 330.33411 
L 133.436558 329.424288 
L 133.375378 328.837467 
L 133.416357 328.576169 
L 133.9117 327.921603 
L 134.55521 327.396584 
L 136.250112 326.210825 
L 136.96781 325.350567 
L 137.764447 324.154021 
L 139.204329 322.951123 
L 139.761373 322.414444 
L 139.982655 322.078373 
L 140.067431 321.741803 
L 139.74422 321.202248 
L 139.515558 320.864373 
L 138.092781 319.711813 
L 137.351948 319.099252 
L 137.0098 318.758223 
L 136.05871 318.211507 
L 133.272081 317.045336 
L 127.903344 315.319399 
L 126.332992 314.764311 
L 124.989177 314.138206 
L 123.715599 313.510366 
L 122.53819 312.880782 
L 121.420047 312.319678 
L 120.464429 311.686771 
L 119.619564 311.122699 
L 119.14269 310.557219 
L 118.866045 309.706343 
L 118.894459 309.137312 
L 119.937263 307.278028 
L 120.731951 306.342632 
L 121.791383 305.475748 
L 123.731864 304.314719 
L 126.430938 303.07457 
L 135.357287 299.535879 
L 141.090988 297.595755 
L 144.153876 296.619427 
L 146.740686 295.865531 
L 148.475189 295.336308 
L 152.491682 293.817392 
L 154.446595 292.901131 
L 156.980345 291.211632 
L 158.236434 290.207337 
L 160.282257 288.887275 
L 160.852443 288.263397 
L 160.968366 287.716092 
L 161.041664 287.324348 
L 160.766369 286.696145 
L 159.900733 285.43449 
L 158.396122 284.245273 
L 156.554841 282.729913 
L 155.380145 281.445912 
L 155.133897 281.123772 
L 154.467548 280.558921 
L 153.206329 279.587317 
L 151.046146 278.285328 
L 147.943214 276.400512 
L 147.480203 276.071111 
L 146.311912 275.493505 
L 144.044313 274.250795 
L 143.493501 273.585219 
L 141.474747 269.634968 
L 141.20529 269.38047 
L 140.358707 268.018299 
L 139.454835 266.733782 
L 139.230146 266.045717 
L 138.876976 265.700899 
L 138.305862 265.355555 
L 137.541376 265.096201 
L 136.420041 264.403137 
L 136.025082 264.14269 
L 135.060449 262.398683 
L 134.754823 262.13592 
L 134.049617 260.817514 
L 133.419185 260.111215 
L 132.663213 259.402707 
L 132.188905 259.136444 
L 131.016248 257.800414 
L 130.753172 256.815628 
L 130.70405 256.546305 
L 130.707935 255.916637 
L 130.583602 255.194867 
L 130.377191 254.923609 
L 130.350574 254.561426 
L 130.146917 254.561426 
L 131.017436 253.835319 
L 131.836135 253.19806 
L 132.314117 252.559003 
L 132.989784 251.183496 
L 133.017211 250.261829 
L 132.942672 249.984596 
L 133.124491 249.243646 
L 133.423045 248.59332 
L 134.164638 247.287042 
L 134.607556 246.25537 
L 135.235119 243.607898 
L 135.978091 242.272469 
L 137.262193 240.929121 
L 138.221469 239.868017 
L 139.120039 238.510292 
L 139.783651 236.850612 
L 139.715079 236.261927 
L 139.624899 235.96701 
L 139.70615 233.89177 
L 139.873052 233.295337 
L 140.649514 231.596863 
L 140.867008 230.692489 
L 140.942411 230.289383 
L 140.744898 229.683376 
L 140.593059 229.379764 
L 140.392171 228.669749 
L 140.126806 228.059388 
L 140.00043 227.345216 
L 139.812705 226.731272 
L 140.031273 224.776064 
L 141.07098 222.699557 
L 141.218928 221.444455 
L 141.450209 219.019231 
L 141.563215 218.382271 
L 143.652808 214.089478 
L 144.484129 212.567574 
L 145.068354 211.474206 
L 145.900743 209.934572 
L 148.407622 203.328629 
L 148.674153 201.617984 
L 149.063653 199.20117 
L 149.251073 198.737887 
L 149.222019 198.50589 
L 149.593394 197.692023 
L 150.5012 195.938115 
L 151.397621 194.525145 
L 153.167815 192.031042 
L 154.131349 190.4732 
L 155.339 188.176908 
L 155.644335 187.081013 
L 155.6151 186.34746 
L 155.538426 185.979791 
L 155.296945 185.734347 
L 154.924021 184.996413 
L 154.36096 184.256068 
L 153.513356 183.513296 
L 152.930197 183.265163 
L 151.578514 182.145189 
L 150.928356 181.895552 
L 149.183573 180.76877 
L 148.401635 180.517611 
L 147.70877 180.14035 
L 146.853473 179.888493 
L 145.353837 179.131237 
L 144.488556 178.878255 
L 141.781896 177.354402 
L 139.974819 176.204747 
L 139.259092 175.948474 
L 136.530721 174.146399 
L 136.135598 173.758368 
L 135.902329 173.239957 
L 135.564305 172.850369 
L 135.111603 172.590271 
L 134.943966 172.069177 
L 134.685722 171.677569 
L 134.356566 171.41612 
L 134.19758 171.02338 
L 133.898802 170.761175 
L 133.517141 169.972733 
L 133.238097 169.709308 
L 133.073026 168.917191 
L 133.173116 168.38757 
L 134.435588 165.586561 
L 136.38278 162.478523 
L 138.254011 158.220801 
L 140.782456 154.587052 
L 142.434893 152.179233 
L 143.806387 149.88943 
L 144.161991 149.169095 
L 144.662056 148.011772 
L 145.053276 146.848507 
L 145.054353 146.556755 
L 145.174241 146.118422 
L 145.120718 145.825727 
L 145.193887 145.385975 
L 145.107987 145.092333 
L 145.165921 144.651154 
L 145.062461 144.356556 
L 145.077397 143.913941 
L 144.728373 143.322438 
L 144.706456 142.877795 
L 144.421245 142.283578 
L 144.562766 141.090446 
L 144.506559 140.791178 
L 144.561848 140.341535 
L 144.003633 138.987224 
L 143.142996 138.685164 
L 142.976615 138.231316 
L 142.639091 137.928246 
L 142.435351 137.472878 
L 141.727569 136.864294 
L 141.537083 136.40678 
L 140.885867 135.795321 
L 140.721616 135.335642 
L 140.082559 134.721281 
L 139.9279 134.259414 
L 138.905424 133.023147 
L 138.861626 132.557802 
L 138.557862 131.935852 
L 138.618134 131.468266 
L 138.078475 129.745479 
L 137.804367 129.430833 
L 137.679147 128.958042 
L 137.415392 128.642299 
L 137.339959 128.167859 
L 136.795877 127.215986 
L 136.992622 125.780635 
L 137.609532 124.175063 
L 137.688423 123.529634 
L 137.96089 122.720253 
L 138.058757 122.07066 
L 138.314245 121.256041 
L 138.451419 120.274616 
L 138.687482 119.453501 
L 138.776791 116.972146 
L 139.049003 116.138952 
L 140.413885 109.532675 
L 140.713965 108.671612 
L 141.20174 106.591609 
L 141.951325 104.492332 
L 142.293032 103.611859 
L 142.537657 102.550755 
L 143.252713 100.771127 
L 143.97502 98.797254 
L 144.628341 95.529716 
L 145.219453 94.24617 
L 145.194201 94.062211 
L 145.92379 92.214359 
L 146.644506 90.351311 
L 147.927736 87.527693 
L 149.532772 85.243182 
L 150.715056 83.707275 
L 152.409133 81.383713 
L 154.148142 78.839332 
L 156.659534 76.066889 
L 160.50316 72.249182 
L 163.552753 69.599499 
L 169.084435 64.834308 
L 172.503909 61.459268 
L 176.480828 58.248841 
L 177.801846 57.168508 
L 183.624662 52.352869 
L 186.049498 50.576034 
L 187.947149 49.009788 
L 189.407659 47.432638 
L 189.868487 46.753341 
L 191.022691 45.160349 
L 192.413503 43.095617 
L 192.501524 42.865036 
L 193.550101 41.244368 
L 193.623351 41.011894 
L 194.259802 39.845935 
L 194.543846 39.143468 
L 194.756022 38.673944 
L 194.715286 38.438816 
L 195.091707 37.495858 
L 195.061456 37.259504 
L 196.850626 33.924391 
L 198.602459 31.269061 
L 199.166637 30.295717 
L 200.259888 28.582238 
L 200.333549 28.336393 
L 202.894596 24.616353 
L 205.952363 21.088323 
L 207.311369 19.303488 
L 212.000149 13.863029 
L 214.163162 11.490804 
L 218.352433 5.585259 
L 218.918952 4.494785 
L 219.915478 3.124271 
L 220.688917 1.745415 
L 221.539303 0.358115 
L 221.726324 -0.199193 
L 222.175152 -1 
L 222.175152 -1 
" clip-path="url(#p472fd73b76)" style="fill: none; stroke: #000000; stroke-width: 2; stroke-linecap: square"/>
   </g>
   <g id="patch_3">
    <path d="M 64.8 32.4 
L 421.2 32.4 
" style="fill: none; stroke: #000000; stroke-width: 0.8; stroke-linejoin: miter; stroke-linecap: square"/>
   </g>
   <g id="patch_4">
    <path d="M 64.8 583.2 
L 421.2 583.2 
" style="fill: none; stroke: #000000; stroke-width: 0.8; stroke-linejoin: miter; stroke-linecap: square"/>
   </g>
   <g id="patch_5">
    <path d="M 64.8 583.2 
L 64.8 32.4 
" style="fill: none; stroke: #000000; stroke-width: 0.8; stroke-linejoin: miter; stroke-linecap: square"/>
   </g>
   <g id="patch_6">
    <path d="M 421.2 583.2 
L 421.2 32.4 
" style="fill: none; stroke: #000000; stroke-width: 0.8; stroke-linejoin: miter; stroke-linecap: square"/>
   </g>
  </g>
 </g>
 <defs>
  <clipPath id="p472fd73b76">
   <rect x="64.8" y="32.4" width="356.4" height="550.8"/>
  </clipPath>
 </defs>
</svg>
